ISO-10303-21;
HEADER;
FILE_DESCRIPTION (( 'STEP AP214' ),
    '1' );
FILE_NAME(
'open-tiny-biased-photodetector-assembly.step',
'2026-01-01T00:00:00',
('Open Hardware Project'),
(''),
'',
'',
''
);
FILE_SCHEMA (( 'AUTOMOTIVE_DESIGN' ));
ENDSEC;

DATA;
#1 = CARTESIAN_POINT ( 'NONE',  ( -4.000004000008000382, -10.00272941248000080, -8.600050800102000181 ) ) ;
#2 = EDGE_CURVE ( 'NONE', #29, #1076, #720, .T. ) ;
#3 = CARTESIAN_POINT ( 'NONE',  ( -5.997681967971000283, -5.378502631947998935, -1.600050800101999959 ) ) ;
#4 = PRODUCT_DEFINITION_FORMATION_WITH_SPECIFIED_SOURCE ( 'ANY', '', #586, .NOT_KNOWN. ) ;
#5 = CIRCLE ( 'NONE', #116, 2.000000000000000000 ) ;
#6 = LINE ( 'NONE', #84, #653 ) ;
#7 = CIRCLE ( 'NONE', #593, 0.9999999999999997780 ) ;
#8 = DIRECTION ( 'NONE',  ( 0.000000000000000000, 0.000000000000000000, -1.000000000000000000 ) ) ;
#9 = CIRCLE ( 'NONE', #964, 2.000000000000000000 ) ;
#10 = DIRECTION ( 'NONE',  ( -1.000000000000000000, 0.000000000000000000, 0.000000000000000000 ) ) ;
#11 = DIRECTION ( 'NONE',  ( -0.000000000000000000, -0.000000000000000000, 1.000000000000000000 ) ) ;
#12 = EDGE_CURVE ( 'NONE', #793, #77, #813, .T. ) ;
#13 = CARTESIAN_POINT ( 'NONE',  ( 0.5999959999919985965, -12.60272941247999867, -10.10005080010200018 ) ) ;
#14 = FACE_OUTER_BOUND ( 'NONE', #869, .T. ) ;
#15 = EDGE_CURVE ( 'NONE', #534, #516, #1006, .T. ) ;
#16 = EDGE_CURVE ( 'NONE', #158, #247, #5, .T. ) ;
#17 = DIRECTION ( 'NONE',  ( 0.000000000000000000, 0.000000000000000000, -1.000000000000000000 ) ) ;
#18 = ORIENTED_EDGE ( 'NONE', *, *, #90, .F. ) ;
#19 = CARTESIAN_POINT ( 'NONE',  ( 0.5999959999920007059, 0.4999957999920008334, -10.10005080010200018 ) ) ;
#20 = EDGE_CURVE ( 'NONE', #205, #558, #1083, .T. ) ;
#21 = UNCERTAINTY_MEASURE_WITH_UNIT (LENGTH_MEASURE( 1.000000000000000082E-05 ), #768, 'distance_accuracy_value', 'NONE');
#22 = VECTOR ( 'NONE', #210, 1000.000000000000000 ) ;
#23 = AXIS2_PLACEMENT_3D ( 'NONE', #1055, #480, #650 ) ;
#24 =( LENGTH_UNIT ( ) NAMED_UNIT ( * ) SI_UNIT ( .MILLI., .METRE. ) );
#25 = ORIENTED_EDGE ( 'NONE', *, *, #1216, .F. ) ;
#26 = AXIS2_PLACEMENT_3D ( 'NONE', #678, #1073, #207 ) ;
#27 = CIRCLE ( 'NONE', #766, 0.9999999999999991118 ) ;
#28 = FACE_OUTER_BOUND ( 'NONE', #1043, .T. ) ;
#29 = VERTEX_POINT ( 'NONE', #380 ) ;
#30 = CARTESIAN_POINT ( 'NONE',  ( -12.60002000003999179, 1.499995799992000167, 0.000000000000000000 ) ) ;
#31 = ORIENTED_EDGE ( 'NONE', *, *, #646, .T. ) ;
#32 = PLANE ( 'NONE',  #1005 ) ;
#33 = FACE_OUTER_BOUND ( 'NONE', #1136, .T. ) ;
#34 = ORIENTED_EDGE ( 'NONE', *, *, #759, .F. ) ;
#35 = CARTESIAN_POINT ( 'NONE',  ( -1.600004000008001803, -21.27850263194799751, -1.600050800101999959 ) ) ;
#36 = ORIENTED_EDGE ( 'NONE', *, *, #754, .F. ) ;
#37 = CARTESIAN_POINT ( 'NONE',  ( -12.60002000003999889, 0.4999957999920006113, -10.10005080010200018 ) ) ;
#38 = DIRECTION ( 'NONE',  ( -0.000000000000000000, -0.000000000000000000, 1.000000000000000000 ) ) ;
#39 = ORIENTED_EDGE ( 'NONE', *, *, #223, .F. ) ;
#40 = ORIENTED_EDGE ( 'NONE', *, *, #140, .F. ) ;
#41 = VECTOR ( 'NONE', #433, 1000.000000000000000 ) ;
#42 = DIRECTION ( 'NONE',  ( -0.000000000000000000, 0.000000000000000000, 1.000000000000000000 ) ) ;
#43 = AXIS2_PLACEMENT_3D ( 'NONE', #1090, #503, #1097 ) ;
#44 = EDGE_LOOP ( 'NONE', ( #971, #1214, #1098, #777, #522, #992, #660, #156 ) ) ;
#45 = ORIENTED_EDGE ( 'NONE', *, *, #90, .T. ) ;
#46 = EDGE_CURVE ( 'NONE', #558, #205, #607, .T. ) ;
#47 = VERTEX_POINT ( 'NONE', #89 ) ;
#48 = LINE ( 'NONE', #238, #500 ) ;
#49 = EDGE_CURVE ( 'NONE', #1113, #221, #216, .T. ) ;
#50 = CARTESIAN_POINT ( 'NONE',  ( -13.60002000004000244, -21.47850263194799680, -1.600050800101993742 ) ) ;
#51 = CARTESIAN_POINT ( 'NONE',  ( -10.40002000004000138, 0.2999957999920002671, 0.000000000000000000 ) ) ;
#52 = EDGE_LOOP ( 'NONE', ( #1194, #1115 ) ) ;
#53 = PLANE ( 'NONE',  #764 ) ;
#54 = EDGE_LOOP ( 'NONE', ( #617, #507, #623, #265 ) ) ;
#55 = APPLICATION_CONTEXT ( 'automotive_design' ) ;
#56 = ORIENTED_EDGE ( 'NONE', *, *, #1018, .T. ) ;
#57 = FACE_OUTER_BOUND ( 'NONE', #911, .T. ) ;
#58 = DIRECTION ( 'NONE',  ( 0.000000000000000000, 0.000000000000000000, -1.000000000000000000 ) ) ;
#59 = ORIENTED_EDGE ( 'NONE', *, *, #383, .F. ) ;
#60 = AXIS2_PLACEMENT_3D ( 'NONE', #680, #872, #783 ) ;
#61 = AXIS2_PLACEMENT_3D ( 'NONE', #1221, #1039, #550 ) ;
#62 = ORIENTED_EDGE ( 'NONE', *, *, #1000, .T. ) ;
#63 = AXIS2_PLACEMENT_3D ( 'NONE', #543, #733, #1024 ) ;
#64 = CIRCLE ( 'NONE', #610, 1.000000000000000888 ) ;
#65 = ORIENTED_EDGE ( 'NONE', *, *, #15, .F. ) ;
#66 = DIRECTION ( 'NONE',  ( 0.000000000000000000, 0.000000000000000000, -1.000000000000000000 ) ) ;
#67 = EDGE_CURVE ( 'NONE', #151, #1076, #461, .T. ) ;
#68 = ORIENTED_EDGE ( 'NONE', *, *, #182, .T. ) ;
#69 = DIRECTION ( 'NONE',  ( -0.000000000000000000, -0.000000000000000000, -1.000000000000000000 ) ) ;
#70 = ORIENTED_EDGE ( 'NONE', *, *, #677, .T. ) ;
#71 = CARTESIAN_POINT ( 'NONE',  ( 0.5999959999919985965, -12.60272941247999867, -8.600050800102000181 ) ) ;
#72 = DIRECTION ( 'NONE',  ( -1.000000000000000000, 0.000000000000000000, 0.000000000000000000 ) ) ;
#73 = ORIENTED_EDGE ( 'NONE', *, *, #1116, .F. ) ;
#74 = DIRECTION ( 'NONE',  ( -0.000000000000000000, -0.000000000000000000, -1.000000000000000000 ) ) ;
#75 = LINE ( 'NONE', #1140, #477 ) ;
#76 = CARTESIAN_POINT ( 'NONE',  ( -3.382321795764000161, -3.215690799700998248, -1.600050800102000625 ) ) ;
#77 = VERTEX_POINT ( 'NONE', #836 ) ;
#78 = CARTESIAN_POINT ( 'NONE',  ( -2.000004000008000382, -10.00272941248000080, -1.600050800101999959 ) ) ;
#79 = LINE ( 'NONE', #1016, #237 ) ;
#80 = VECTOR ( 'NONE', #186, 1000.000000000000000 ) ;
#81 = VECTOR ( 'NONE', #354, 1000.000000000000000 ) ;
#82 = AXIS2_PLACEMENT_3D ( 'NONE', #589, #779, #108 ) ;
#83 = AXIS2_PLACEMENT_3D ( 'NONE', #212, #1065, #687 ) ;
#84 = CARTESIAN_POINT ( 'NONE',  ( 0.3999959999919991405, -7.690616022213999869, -1.600050800101999959 ) ) ;
#85 = CARTESIAN_POINT ( 'NONE',  ( -12.40002000004000138, -1.700004200007999566, -1.600050800101999959 ) ) ;
#86 = ORIENTED_EDGE ( 'NONE', *, *, #835, .T. ) ;
#87 = CARTESIAN_POINT ( 'NONE',  ( -12.60002000004000244, -21.47850263194799680, 0.000000000000000000 ) ) ;
#88 = CARTESIAN_POINT ( 'NONE',  ( -12.60002000003999889, 0.4999957999920006113, -10.10005080010200018 ) ) ;
#89 = CARTESIAN_POINT ( 'NONE',  ( 1.599995999992000595, 0.4999957999919935059, 0.000000000000000000 ) ) ;
#90 = EDGE_CURVE ( 'NONE', #554, #1070, #98, .T. ) ;
#91 = LINE ( 'NONE', #281, #394 ) ;
#92 = DIRECTION ( 'NONE',  ( 0.7071067811858978702, 0.7071067811871972753, 0.000000000000000000 ) ) ;
#93 = CARTESIAN_POINT ( 'NONE',  ( -1.600004000008001581, -19.27850263194799751, 0.000000000000000000 ) ) ;
#94 = CARTESIAN_POINT ( 'NONE',  ( -5.997681967971000283, -5.378502631947998935, -10.10005080010200018 ) ) ;
#95 = FACE_OUTER_BOUND ( 'NONE', #808, .T. ) ;
#96 = DIRECTION ( 'NONE',  ( 0.7071067811863380737, -0.7071067811867569608, 0.000000000000000000 ) ) ;
#97 = AXIS2_PLACEMENT_3D ( 'NONE', #305, #1164, #986 ) ;
#98 = CIRCLE ( 'NONE', #1230, 2.000000000000000000 ) ;
#99 = AXIS2_PLACEMENT_3D ( 'NONE', #19, #38, #388 ) ;
#100 = CARTESIAN_POINT ( 'NONE',  ( 0.3999959999919979747, -21.27850263194799751, 28.39029540973073296 ) ) ;
#101 = ADVANCED_FACE ( 'NONE', ( #844 ), #1233, .F. ) ;
#102 = CARTESIAN_POINT ( 'NONE',  ( -1.600004000007999583, -1.700004200008001343, 0.000000000000000000 ) ) ;
#103 = LINE ( 'NONE', #1145, #1208 ) ;
#104 = ADVANCED_FACE ( 'NONE', ( #755 ), #1152, .F. ) ;
#105 = DIRECTION ( 'NONE',  ( -1.000000000000000000, 0.000000000000000000, 0.000000000000000000 ) ) ;
#106 = PRODUCT_DEFINITION_CONTEXT ( 'detailed design', #941, 'design' ) ;
#107 = CARTESIAN_POINT ( 'NONE',  ( 0.5999959999919944886, 1.499995799992000611, 0.000000000000000000 ) ) ;
#108 = DIRECTION ( 'NONE',  ( -0.7071067811863992469, 0.7071067811866957875, 0.000000000000000000 ) ) ;
#109 = PRODUCT ( 'Teil1^Baugr6', 'Teil1^Baugr6', '', ( #1117 ) ) ;
#110 = EDGE_CURVE ( 'NONE', #1227, #1146, #357, .T. ) ;
#111 = FACE_OUTER_BOUND ( 'NONE', #597, .T. ) ;
#112 = DIRECTION ( 'NONE',  ( 0.000000000000000000, 0.000000000000000000, 1.000000000000000000 ) ) ;
#113 = VERTEX_POINT ( 'NONE', #954 ) ;
#114 = CARTESIAN_POINT ( 'NONE',  ( 1.599995999991997264, -21.47850263194799680, -10.10005080010200018 ) ) ;
#115 = CYLINDRICAL_SURFACE ( 'NONE', #26, 2.000000000000000000 ) ;
#116 = AXIS2_PLACEMENT_3D ( 'NONE', #1147, #855, #185 ) ;
#117 = CARTESIAN_POINT ( 'NONE',  ( -12.40002000004000138, 0.2999957999920006557, 28.39029540973073296 ) ) ;
#118 = ORIENTED_EDGE ( 'NONE', *, *, #1063, .F. ) ;
#119 = VECTOR ( 'NONE', #302, 1000.000000000000000 ) ;
#120 = DIRECTION ( 'NONE',  ( 0.000000000000000000, 0.000000000000000000, -1.000000000000000000 ) ) ;
#121 = VECTOR ( 'NONE', #838, 1000.000000000000000 ) ;
#122 = DIRECTION ( 'NONE',  ( 0.000000000000000000, -1.000000000000000000, 0.000000000000000000 ) ) ;
#123 = ORIENTED_EDGE ( 'NONE', *, *, #436, .F. ) ;
#124 = DIRECTION ( 'NONE',  ( 0.000000000000000000, -1.000000000000000000, -0.000000000000000000 ) ) ;
#125 =( NAMED_UNIT ( * ) SI_UNIT ( $, .STERADIAN. ) SOLID_ANGLE_UNIT ( ) );
#126 = EDGE_LOOP ( 'NONE', ( #1011, #73, #243, #1017 ) ) ;
#127 = EDGE_CURVE ( 'NONE', #518, #689, #6, .T. ) ;
#128 = LINE ( 'NONE', #891, #239 ) ;
#129 = ORIENTED_EDGE ( 'NONE', *, *, #835, .F. ) ;
#130 = ORIENTED_EDGE ( 'NONE', *, *, #457, .F. ) ;
#131 = FACE_OUTER_BOUND ( 'NONE', #551, .T. ) ;
#132 = EDGE_CURVE ( 'NONE', #247, #738, #75, .T. ) ;
#133 = PLANE ( 'NONE',  #82 ) ;
#134 = VERTEX_POINT ( 'NONE', #376 ) ;
#135 = EDGE_LOOP ( 'NONE', ( #901, #980, #277, #166 ) ) ;
#136 = CIRCLE ( 'NONE', #762, 2.000000000000000000 ) ;
#137 = VECTOR ( 'NONE', #74, 1000.000000000000000 ) ;
#138 = CARTESIAN_POINT ( 'NONE',  ( -1.600004000007999583, -1.700004200008001343, -1.600050800102000625 ) ) ;
#139 = PLANE ( 'NONE',  #790 ) ;
#140 = EDGE_CURVE ( 'NONE', #142, #906, #291, .T. ) ;
#141 = CIRCLE ( 'NONE', #83, 2.909999999999394849 ) ;
#142 = VERTEX_POINT ( 'NONE', #849 ) ;
#143 = EDGE_CURVE ( 'NONE', #396, #510, #787, .T. ) ;
#144 = ADVANCED_BREP_SHAPE_REPRESENTATION ( '', ( #432, #180 ), #705 ) ;
#145 = EDGE_LOOP ( 'NONE', ( #852, #928 ) ) ;
#146 = CARTESIAN_POINT ( 'NONE',  ( -3.087681967971604990, -5.378502631947998935, -1.600050800101999959 ) ) ;
#147 = CARTESIAN_POINT ( 'NONE',  ( -1.600004000008001581, -19.27850263194799751, -1.600050800102000625 ) ) ;
#148 = ORIENTED_EDGE ( 'NONE', *, *, #985, .F. ) ;
#149 = DIRECTION ( 'NONE',  ( 0.000000000000000000, 0.000000000000000000, -1.000000000000000000 ) ) ;
#150 = EDGE_CURVE ( 'NONE', #1211, #934, #170, .T. ) ;
#151 = VERTEX_POINT ( 'NONE', #275 ) ;
#152 = CARTESIAN_POINT ( 'NONE',  ( -12.60002000004000244, -22.47850263194799680, 0.000000000000000000 ) ) ;
#153 = FACE_OUTER_BOUND ( 'NONE', #780, .T. ) ;
#154 = ORIENTED_EDGE ( 'NONE', *, *, #202, .F. ) ;
#155 = ORIENTED_EDGE ( 'NONE', *, *, #475, .F. ) ;
#156 = ORIENTED_EDGE ( 'NONE', *, *, #1036, .F. ) ;
#157 = PLANE ( 'NONE',  #419 ) ;
#158 = VERTEX_POINT ( 'NONE', #1041 ) ;
#159 = AXIS2_PLACEMENT_3D ( 'NONE', #13, #491, #381 ) ;
#160 = AXIS2_PLACEMENT_3D ( 'NONE', #951, #552, #189 ) ;
#161 = ORIENTED_EDGE ( 'NONE', *, *, #1204, .F. ) ;
#162 = AXIS2_PLACEMENT_3D ( 'NONE', #794, #66, #443 ) ;
#163 = ORIENTED_EDGE ( 'NONE', *, *, #143, .F. ) ;
#164 = CARTESIAN_POINT ( 'NONE',  ( -4.000004000008000382, -10.00272941248000080, -8.600050800102000181 ) ) ;
#165 = ADVANCED_FACE ( 'NONE', ( #739 ), #556, .F. ) ;
#166 = ORIENTED_EDGE ( 'NONE', *, *, #356, .T. ) ;
#167 = LINE ( 'NONE', #352, #137 ) ;
#168 = DIRECTION ( 'NONE',  ( 0.000000000000000000, 0.000000000000000000, -1.000000000000000000 ) ) ;
#169 = VERTEX_POINT ( 'NONE', #498 ) ;
#170 = LINE ( 'NONE', #644, #1048 ) ;
#171 = DIRECTION ( 'NONE',  ( -1.000000000000000000, 0.000000000000000000, 0.000000000000000000 ) ) ;
#172 = ORIENTED_EDGE ( 'NONE', *, *, #592, .F. ) ;
#173 = CARTESIAN_POINT ( 'NONE',  ( -4.557815508715677311, -2.849691729664528772, -1.600050800102000625 ) ) ;
#174 = FACE_OUTER_BOUND ( 'NONE', #240, .T. ) ;
#175 = ORIENTED_EDGE ( 'NONE', *, *, #20, .T. ) ;
#176 = CARTESIAN_POINT ( 'NONE',  ( -6.000012000024001146, -12.47850263194799858, -5.050025400050998314 ) ) ;
#177 = DIRECTION ( 'NONE',  ( -0.000000000000000000, -0.000000000000000000, -1.000000000000000000 ) ) ;
#178 = ORIENTED_EDGE ( 'NONE', *, *, #1204, .T. ) ;
#179 = DIRECTION ( 'NONE',  ( -0.000000000000000000, -0.000000000000000000, 1.000000000000000000 ) ) ;
#180 = AXIS2_PLACEMENT_3D ( 'NONE', #195, #201, #385 ) ;
#181 = VECTOR ( 'NONE', #991, 1000.000000000000000 ) ;
#182 = EDGE_CURVE ( 'NONE', #452, #1227, #886, .T. ) ;
#183 = AXIS2_PLACEMENT_3D ( 'NONE', #494, #875, #1014 ) ;
#184 = CIRCLE ( 'NONE', #562, 2.000000000000000000 ) ;
#185 = DIRECTION ( 'NONE',  ( -1.000000000000000000, 0.000000000000000000, 0.000000000000000000 ) ) ;
#186 = DIRECTION ( 'NONE',  ( 0.000000000000000000, 0.000000000000000000, -1.000000000000000000 ) ) ;
#187 = FILL_AREA_STYLE ('',( #365 ) ) ;
#188 = EDGE_CURVE ( 'NONE', #1184, #793, #222, .T. ) ;
#189 = DIRECTION ( 'NONE',  ( -1.000000000000000000, 0.000000000000000000, 0.000000000000000000 ) ) ;
#190 = CARTESIAN_POINT ( 'NONE',  ( 0.3999959999920004172, -1.700004200008001565, -8.600050800101996629 ) ) ;
#191 = ORIENTED_EDGE ( 'NONE', *, *, #273, .F. ) ;
#192 = CARTESIAN_POINT ( 'NONE',  ( 0.5999959999919972642, -21.47850263194799680, -10.10005080010200018 ) ) ;
#193 = DIRECTION ( 'NONE',  ( 0.000000000000000000, 0.000000000000000000, -1.000000000000000000 ) ) ;
#194 = EDGE_CURVE ( 'NONE', #703, #221, #969, .T. ) ;
#195 = CARTESIAN_POINT ( 'NONE',  ( 0.000000000000000000, 0.000000000000000000, 0.000000000000000000 ) ) ;
#196 = ADVANCED_FACE ( 'NONE', ( #1060 ), #199, .F. ) ;
#197 = SURFACE_STYLE_USAGE ( .BOTH. , #1067 ) ;
#198 = CIRCLE ( 'NONE', #900, 1.000000000000000444 ) ;
#199 = PLANE ( 'NONE',  #876 ) ;
#200 = AXIS2_PLACEMENT_3D ( 'NONE', #87, #1161, #665 ) ;
#201 = DIRECTION ( 'NONE',  ( 0.000000000000000000, 0.000000000000000000, 1.000000000000000000 ) ) ;
#202 = EDGE_CURVE ( 'NONE', #987, #738, #260, .T. ) ;
#203 = CARTESIAN_POINT ( 'NONE',  ( -8.000020000039999246, -10.00272941248000080, -8.600050800102000181 ) ) ;
#204 = DIRECTION ( 'NONE',  ( 1.778766965770876123E-16, 1.000000000000000000, 0.000000000000000000 ) ) ;
#205 = VERTEX_POINT ( 'NONE', #1166 ) ;
#206 = DIRECTION ( 'NONE',  ( -0.000000000000000000, -1.000000000000000000, -0.000000000000000000 ) ) ;
#207 = DIRECTION ( 'NONE',  ( 1.000000000000000000, 0.000000000000000000, 0.000000000000000000 ) ) ;
#208 = VERTEX_POINT ( 'NONE', #292 ) ;
#209 = ORIENTED_EDGE ( 'NONE', *, *, #150, .F. ) ;
#210 = DIRECTION ( 'NONE',  ( 1.000000000000000000, 3.285457146363692818E-17, -0.000000000000000000 ) ) ;
#211 = VERTEX_POINT ( 'NONE', #1068 ) ;
#212 = CARTESIAN_POINT ( 'NONE',  ( -5.997681967971000283, -5.378502631947998935, -1.600050800101999959 ) ) ;
#213 = PLANE ( 'NONE',  #1107 ) ;
#214 = ORIENTED_EDGE ( 'NONE', *, *, #49, .T. ) ;
#215 = ADVANCED_FACE ( 'NONE', ( #111 ), #489, .F. ) ;
#216 = CIRCLE ( 'NONE', #160, 0.4500000000000484723 ) ;
#217 = EDGE_LOOP ( 'NONE', ( #425, #712 ) ) ;
#218 = AXIS2_PLACEMENT_3D ( 'NONE', #3, #854, #1150 ) ;
#219 = DIRECTION ( 'NONE',  ( -1.000000000000000000, 0.000000000000000000, -0.000000000000000000 ) ) ;
#220 = FACE_OUTER_BOUND ( 'NONE', #54, .T. ) ;
#221 = VERTEX_POINT ( 'NONE', #1236 ) ;
#222 = LINE ( 'NONE', #318, #181 ) ;
#223 = EDGE_CURVE ( 'NONE', #47, #717, #926, .T. ) ;
#224 = DIRECTION ( 'NONE',  ( 1.000000000000000000, 0.000000000000000000, 0.000000000000000000 ) ) ;
#225 = ORIENTED_EDGE ( 'NONE', *, *, #506, .F. ) ;
#226 = CARTESIAN_POINT ( 'NONE',  ( -10.40002000004000138, -21.27850263194799751, -1.600050800101999959 ) ) ;
#227 = CYLINDRICAL_SURFACE ( 'NONE', #99, 0.9999999999999997780 ) ;
#228 = PRODUCT_CONTEXT ( 'NONE', #1093, 'mechanical' ) ;
#229 = EDGE_CURVE ( 'NONE', #1030, #544, #673, .T. ) ;
#230 = EDGE_LOOP ( 'NONE', ( #118, #826, #830, #62 ) ) ;
#231 = LINE ( 'NONE', #327, #861 ) ;
#232 = CARTESIAN_POINT ( 'NONE',  ( -3.064123744230124124, -3.533888851234550543, -2.600050800101999737 ) ) ;
#233 = EDGE_CURVE ( 'NONE', #501, #703, #1044, .T. ) ;
#234 = ORIENTED_EDGE ( 'NONE', *, *, #273, .T. ) ;
#235 = ORIENTED_EDGE ( 'NONE', *, *, #356, .F. ) ;
#236 = AXIS2_PLACEMENT_3D ( 'NONE', #100, #880, #863 ) ;
#237 = VECTOR ( 'NONE', #809, 1000.000000000000000 ) ;
#238 = CARTESIAN_POINT ( 'NONE',  ( 0.3999959999919982523, -19.27850263194799751, 0.000000000000000000 ) ) ;
#239 = VECTOR ( 'NONE', #994, 1000.000000000000000 ) ;
#240 = EDGE_LOOP ( 'NONE', ( #888, #997, #913, #459 ) ) ;
#241 = CIRCLE ( 'NONE', #1108, 2.000000000000000000 ) ;
#242 = DIRECTION ( 'NONE',  ( -1.000000000000000000, 0.000000000000000000, 0.000000000000000000 ) ) ;
#243 = ORIENTED_EDGE ( 'NONE', *, *, #447, .T. ) ;
#244 = EDGE_LOOP ( 'NONE', ( #590, #686 ) ) ;
#245 = FACE_OUTER_BOUND ( 'NONE', #495, .T. ) ;
#246 = CARTESIAN_POINT ( 'NONE',  ( -7.998850984005500209, -7.690616022213998981, -1.600050800101999959 ) ) ;
#247 = VERTEX_POINT ( 'NONE', #1215 ) ;
#248 = DIRECTION ( 'NONE',  ( -0.7071067811863992469, 0.7071067811866957875, 0.000000000000000000 ) ) ;
#249 = DIRECTION ( 'NONE',  ( -0.000000000000000000, -0.000000000000000000, -1.000000000000000000 ) ) ;
#250 = ORIENTED_EDGE ( 'NONE', *, *, #882, .F. ) ;
#251 = APPLICATION_PROTOCOL_DEFINITION ( 'draft international standard', 'automotive_design', 1998, #941 ) ;
#252 = VERTEX_POINT ( 'NONE', #718 ) ;
#253 = DIRECTION ( 'NONE',  ( 1.000000000000000000, 0.000000000000000000, 0.000000000000000000 ) ) ;
#254 = DIRECTION ( 'NONE',  ( 1.000000000000000000, 0.000000000000000000, 0.000000000000000000 ) ) ;
#255 = CYLINDRICAL_SURFACE ( 'NONE', #1151, 2.000000000000000000 ) ;
#256 = EDGE_CURVE ( 'NONE', #717, #1211, #198, .T. ) ;
#257 = ORIENTED_EDGE ( 'NONE', *, *, #319, .T. ) ;
#258 = DIRECTION ( 'NONE',  ( 1.000000000000000000, -1.323940972467002338E-16, 0.000000000000000000 ) ) ;
#259 = CYLINDRICAL_SURFACE ( 'NONE', #960, 2.000000000000000000 ) ;
#260 = CIRCLE ( 'NONE', #331, 2.000000000000000000 ) ;
#261 = CIRCLE ( 'NONE', #415, 2.000000000000000000 ) ;
#262 = DIRECTION ( 'NONE',  ( -0.000000000000000000, -0.000000000000000000, -1.000000000000000000 ) ) ;
#263 = AXIS2_PLACEMENT_3D ( 'NONE', #999, #435, #824 ) ;
#264 = VECTOR ( 'NONE', #486, 1000.000000000000000 ) ;
#265 = ORIENTED_EDGE ( 'NONE', *, *, #194, .T. ) ;
#266 = DIRECTION ( 'NONE',  ( -1.000000000000000000, 0.000000000000000000, 0.000000000000000000 ) ) ;
#267 = DIRECTION ( 'NONE',  ( -0.000000000000000000, -0.000000000000000000, 1.000000000000000000 ) ) ;
#268 = EDGE_LOOP ( 'NONE', ( #921, #918, #639, #70, #31, #652, #178, #834 ) ) ;
#269 = CARTESIAN_POINT ( 'NONE',  ( -3.382321795764000161, -3.215690799700998248, -2.600050800101999737 ) ) ;
#270 = DIRECTION ( 'NONE',  ( 1.000000000000000000, 0.000000000000000000, 0.000000000000000000 ) ) ;
#271 = ADVANCED_FACE ( 'NONE', ( #1228 ), #255, .F. ) ;
#272 = LINE ( 'NONE', #752, #1064 ) ;
#273 = EDGE_CURVE ( 'NONE', #711, #252, #167, .T. ) ;
#274 = ORIENTED_EDGE ( 'NONE', *, *, #140, .T. ) ;
#275 = CARTESIAN_POINT ( 'NONE',  ( -8.000020000039999246, -2.100004200008000144, -1.600050800101999959 ) ) ;
#276 = DIRECTION ( 'NONE',  ( -0.000000000000000000, -0.000000000000000000, 1.000000000000000000 ) ) ;
#277 = ORIENTED_EDGE ( 'NONE', *, *, #150, .T. ) ;
#278 = AXIS2_PLACEMENT_3D ( 'NONE', #1157, #967, #1162 ) ;
#279 = AXIS2_PLACEMENT_3D ( 'NONE', #993, #513, #823 ) ;
#280 = DIRECTION ( 'NONE',  ( -1.000000000000000000, 0.000000000000000000, 0.000000000000000000 ) ) ;
#281 = CARTESIAN_POINT ( 'NONE',  ( -6.000012000024001146, -12.47850263194799858, -2.250025400050998048 ) ) ;
#282 = PLANE ( 'NONE',  #657 ) ;
#283 = DIRECTION ( 'NONE',  ( 0.000000000000000000, 1.000000000000000000, 0.000000000000000000 ) ) ;
#284 = DIRECTION ( 'NONE',  ( 0.7071067811871972753, -0.7071067811858978702, 0.000000000000000000 ) ) ;
#285 = DIRECTION ( 'NONE',  ( -0.000000000000000000, -0.000000000000000000, -1.000000000000000000 ) ) ;
#286 = DIRECTION ( 'NONE',  ( 0.000000000000000000, 0.000000000000000000, -1.000000000000000000 ) ) ;
#287 = CARTESIAN_POINT ( 'NONE',  ( 0.5999959999919974862, -22.47850263194799680, 0.000000000000000000 ) ) ;
#288 = LINE ( 'NONE', #966, #839 ) ;
#289 = DIRECTION ( 'NONE',  ( -0.7071067811868729791, -0.7071067811862220553, 0.000000000000000000 ) ) ;
#290 = AXIS2_PLACEMENT_3D ( 'NONE', #970, #112, #1177 ) ;
#291 = CIRCLE ( 'NONE', #574, 0.9999999999999991118 ) ;
#292 = CARTESIAN_POINT ( 'NONE',  ( -8.907681967970722425, -5.378502631947998935, -10.10005080010200018 ) ) ;
#293 = CIRCLE ( 'NONE', #594, 2.000000000000000000 ) ;
#294 = LINE ( 'NONE', #401, #1168 ) ;
#295 = ADVANCED_FACE ( 'NONE', ( #732 ), #1137, .T. ) ;
#296 = ORIENTED_EDGE ( 'NONE', *, *, #995, .T. ) ;
#297 = DIRECTION ( 'NONE',  ( -0.000000000000000000, -0.000000000000000000, 1.000000000000000000 ) ) ;
#298 = DIRECTION ( 'NONE',  ( -0.7071067811859270691, -0.7071067811871679654, 0.000000000000000000 ) ) ;
#299 = DIRECTION ( 'NONE',  ( -1.000000000000000000, 0.000000000000000000, 0.000000000000000000 ) ) ;
#300 = EDGE_LOOP ( 'NONE', ( #828, #976, #34, #130 ) ) ;
#301 = DIRECTION ( 'NONE',  ( -1.000000000000000000, 0.000000000000000000, 0.000000000000000000 ) ) ;
#302 = DIRECTION ( 'NONE',  ( -1.000000000000000000, 0.000000000000000000, 0.000000000000000000 ) ) ;
#303 = EDGE_CURVE ( 'NONE', #738, #987, #1002, .T. ) ;
#304 = VERTEX_POINT ( 'NONE', #933 ) ;
#305 = CARTESIAN_POINT ( 'NONE',  ( -5.997681967971000283, -5.378502631947998935, -1.600050800101999959 ) ) ;
#306 = VERTEX_POINT ( 'NONE', #643 ) ;
#307 = DIRECTION ( 'NONE',  ( 0.000000000000000000, 0.000000000000000000, -1.000000000000000000 ) ) ;
#308 = CARTESIAN_POINT ( 'NONE',  ( -6.000012000024001146, -12.47850263194799858, -7.850025400050997249 ) ) ;
#309 = ORIENTED_EDGE ( 'NONE', *, *, #2, .T. ) ;
#310 = EDGE_CURVE ( 'NONE', #501, #396, #79, .T. ) ;
#311 = AXIS2_PLACEMENT_3D ( 'NONE', #1163, #367, #193 ) ;
#312 = ORIENTED_EDGE ( 'NONE', *, *, #754, .T. ) ;
#313 = VECTOR ( 'NONE', #285, 1000.000000000000000 ) ;
#314 = LINE ( 'NONE', #579, #1192 ) ;
#315 = VECTOR ( 'NONE', #909, 1000.000000000000000 ) ;
#316 = LINE ( 'NONE', #1176, #560 ) ;
#317 = EDGE_LOOP ( 'NONE', ( #602, #601, #595, #341 ) ) ;
#318 = CARTESIAN_POINT ( 'NONE',  ( -7.998850984005500209, -21.27850263194799751, -1.600050800101999959 ) ) ;
#319 = EDGE_CURVE ( 'NONE', #714, #894, #917, .T. ) ;
#320 = SHAPE_DEFINITION_REPRESENTATION ( #968, #389 ) ;
#321 = EDGE_LOOP ( 'NONE', ( #1015, #990, #161, #333 ) ) ;
#322 = DIRECTION ( 'NONE',  ( -1.000000000000000000, 0.000000000000000000, 0.000000000000000000 ) ) ;
#323 = CARTESIAN_POINT ( 'NONE',  ( -4.000007999740290421E-06, -10.00272941248000080, -1.600050800101999959 ) ) ;
#324 = VERTEX_POINT ( 'NONE', #533 ) ;
#325 = VERTEX_POINT ( 'NONE', #1122 ) ;
#326 = EDGE_CURVE ( 'NONE', #406, #1113, #1206, .T. ) ;
#327 = CARTESIAN_POINT ( 'NONE',  ( 1.599995999992000595, 0.4999957999919935059, -10.10005080010200018 ) ) ;
#328 = ORIENTED_EDGE ( 'NONE', *, *, #1000, .F. ) ;
#329 = ORIENTED_EDGE ( 'NONE', *, *, #1180, .T. ) ;
#330 = CARTESIAN_POINT ( 'NONE',  ( -12.00002000003999925, -2.100004200007999700, -8.600050800102000181 ) ) ;
#331 = AXIS2_PLACEMENT_3D ( 'NONE', #965, #17, #105 ) ;
#332 = DIRECTION ( 'NONE',  ( -0.000000000000000000, -0.000000000000000000, -1.000000000000000000 ) ) ;
#333 = ORIENTED_EDGE ( 'NONE', *, *, #1131, .T. ) ;
#334 = DIRECTION ( 'NONE',  ( 1.000000000000000000, 0.000000000000000000, 0.000000000000000000 ) ) ;
#335 = CIRCLE ( 'NONE', #1132, 2.799999999999999378 ) ;
#336 = CARTESIAN_POINT ( 'NONE',  ( 1.599995999991997042, -22.47850263194799680, 16.52648728866691741 ) ) ;
#337 = EDGE_LOOP ( 'NONE', ( #649, #163, #402, #1242, #675, #548 ) ) ;
#338 = CARTESIAN_POINT ( 'NONE',  ( -10.40002000004000138, 0.2999957999920002671, -1.600050800102000625 ) ) ;
#339 = FACE_OUTER_BOUND ( 'NONE', #317, .T. ) ;
#340 = ORIENTED_EDGE ( 'NONE', *, *, #1142, .F. ) ;
#341 = ORIENTED_EDGE ( 'NONE', *, *, #303, .F. ) ;
#342 = EDGE_CURVE ( 'NONE', #1146, #621, #614, .T. ) ;
#343 = DIRECTION ( 'NONE',  ( 1.323940972467002338E-16, 1.000000000000000000, 0.000000000000000000 ) ) ;
#344 = FACE_BOUND ( 'NONE', #244, .T. ) ;
#345 = ORIENTED_EDGE ( 'NONE', *, *, #15, .T. ) ;
#346 = EDGE_LOOP ( 'NONE', ( #810, #937 ) ) ;
#347 = ADVANCED_FACE ( 'NONE', ( #174 ), #627, .F. ) ;
#348 = ORIENTED_EDGE ( 'NONE', *, *, #436, .T. ) ;
#349 = CARTESIAN_POINT ( 'NONE',  ( -4.000004000008000382, -10.00272941248000080, -1.600050800101999959 ) ) ;
#350 = EDGE_LOOP ( 'NONE', ( #492, #366, #441, #225 ) ) ;
#351 = CIRCLE ( 'NONE', #97, 2.909999999999394849 ) ;
#352 = CARTESIAN_POINT ( 'NONE',  ( -4.557815508715677311, -2.849691729664529216, 9.244482919354950923 ) ) ;
#353 = AXIS2_PLACEMENT_3D ( 'NONE', #569, #741, #378 ) ;
#354 = DIRECTION ( 'NONE',  ( -0.000000000000000000, -0.000000000000000000, 1.000000000000000000 ) ) ;
#355 = AXIS2_PLACEMENT_3D ( 'NONE', #471, #453, #832 ) ;
#356 = EDGE_CURVE ( 'NONE', #934, #306, #1229, .T. ) ;
#357 = LINE ( 'NONE', #469, #857 ) ;
#358 = EDGE_CURVE ( 'NONE', #77, #452, #707, .T. ) ;
#359 = CARTESIAN_POINT ( 'NONE',  ( -4.000007999740290421E-06, -10.00272941248000080, -8.600050800102000181 ) ) ;
#360 = CARTESIAN_POINT ( 'NONE',  ( -1.600004000007998917, 0.2999957999919986018, -1.600050800102000625 ) ) ;
#361 = DIRECTION ( 'NONE',  ( 1.000000000000000000, 0.000000000000000000, 0.000000000000000000 ) ) ;
#362 = DIRECTION ( 'NONE',  ( -1.205869454805837871E-16, -1.000000000000000000, 0.000000000000000000 ) ) ;
#363 = CARTESIAN_POINT ( 'NONE',  ( -2.000004000008000382, -10.00272941248000080, -8.600050800102000181 ) ) ;
#364 = ADVANCED_FACE ( 'NONE', ( #440, #527 ), #53, .T. ) ;
#365 = FILL_AREA_STYLE_COLOUR ( '', #920 ) ;
#366 = ORIENTED_EDGE ( 'NONE', *, *, #1063, .T. ) ;
#367 = DIRECTION ( 'NONE',  ( -0.000000000000000000, -1.000000000000000000, -0.000000000000000000 ) ) ;
#368 = CARTESIAN_POINT ( 'NONE',  ( 0.3999959999920006393, 0.2999957999919983798, 0.000000000000000000 ) ) ;
#369 = PRODUCT_DEFINITION ( 'UNKNOWN', '', #413, #106 ) ;
#370 = CARTESIAN_POINT ( 'NONE',  ( -3.087681967971278585, -5.378502631947998935, -10.10005080010200018 ) ) ;
#371 =( GEOMETRIC_REPRESENTATION_CONTEXT ( 3 ) GLOBAL_UNCERTAINTY_ASSIGNED_CONTEXT ( ( #384 ) ) GLOBAL_UNIT_ASSIGNED_CONTEXT ( ( #24, #1210, #1019 ) ) REPRESENTATION_CONTEXT ( 'NONE', 'WORKASPACE' ) );
#372 = LINE ( 'NONE', #648, #313 ) ;
#373 = VECTOR ( 'NONE', #908, 1000.000000000000000 ) ;
#374 = MECHANICAL_DESIGN_GEOMETRIC_PRESENTATION_REPRESENTATION (  '', ( #748 ), #655 ) ;
#375 = AXIS2_PLACEMENT_3D ( 'NONE', #138, #923, #611 ) ;
#376 = CARTESIAN_POINT ( 'NONE',  ( 1.599995999991997264, -21.47850263194799680, -10.10005080010200018 ) ) ;
#377 = DIRECTION ( 'NONE',  ( -1.000000000000000000, 0.000000000000000000, 0.000000000000000000 ) ) ;
#378 = DIRECTION ( 'NONE',  ( -1.000000000000000000, 0.000000000000000000, 0.000000000000000000 ) ) ;
#379 = EDGE_CURVE ( 'NONE', #703, #406, #478, .T. ) ;
#380 = CARTESIAN_POINT ( 'NONE',  ( -12.00002000003999925, -2.100004200007999700, -8.600050800102000181 ) ) ;
#381 = DIRECTION ( 'NONE',  ( -1.000000000000000000, 0.000000000000000000, -0.000000000000000000 ) ) ;
#382 = PLANE ( 'NONE',  #463 ) ;
#383 = EDGE_CURVE ( 'NONE', #1076, #151, #392, .T. ) ;
#384 = UNCERTAINTY_MEASURE_WITH_UNIT (LENGTH_MEASURE( 1.000000000000000082E-05 ), #24, 'distance_accuracy_value', 'NONE');
#385 = DIRECTION ( 'NONE',  ( 1.000000000000000000, 0.000000000000000000, 0.000000000000000000 ) ) ;
#386 = ORIENTED_EDGE ( 'NONE', *, *, #326, .T. ) ;
#387 = CARTESIAN_POINT ( 'NONE',  ( -12.00002000003999925, -10.00272941248000080, -1.600050800101999959 ) ) ;
#388 = DIRECTION ( 'NONE',  ( 1.000000000000000000, 0.000000000000000000, 0.000000000000000000 ) ) ;
#389 = SHAPE_REPRESENTATION ( 'Teil1^Baugr6', ( #180 ), #705 ) ;
#390 = AXIS2_PLACEMENT_3D ( 'NONE', #117, #204, #1080 ) ;
#391 = AXIS2_PLACEMENT_3D ( 'NONE', #1010, #637, #1032 ) ;
#392 = CIRCLE ( 'NONE', #1084, 2.000000000000000000 ) ;
#393 = EDGE_CURVE ( 'NONE', #221, #396, #573, .T. ) ;
#394 = VECTOR ( 'NONE', #1141, 1000.000000000000000 ) ;
#395 = PLANE ( 'NONE',  #236 ) ;
#396 = VERTEX_POINT ( 'NONE', #565 ) ;
#397 = EDGE_CURVE ( 'NONE', #158, #987, #1165, .T. ) ;
#398 = DIRECTION ( 'NONE',  ( 0.000000000000000000, 0.000000000000000000, -1.000000000000000000 ) ) ;
#399 = CARTESIAN_POINT ( 'NONE',  ( -13.60002000004000422, -21.47850263194799680, 0.000000000000000000 ) ) ;
#400 = ORIENTED_EDGE ( 'NONE', *, *, #898, .F. ) ;
#401 = CARTESIAN_POINT ( 'NONE',  ( 0.5999959999919936005, 1.499995799992000611, -10.10005080010200018 ) ) ;
#402 = ORIENTED_EDGE ( 'NONE', *, *, #393, .F. ) ;
#403 = DIRECTION ( 'NONE',  ( 1.000000000000000000, -1.778766965770876123E-16, 0.000000000000000000 ) ) ;
#404 = EDGE_CURVE ( 'NONE', #704, #931, #946, .T. ) ;
#405 = DIRECTION ( 'NONE',  ( 0.000000000000000000, 0.000000000000000000, 1.000000000000000000 ) ) ;
#406 = VERTEX_POINT ( 'NONE', #1054 ) ;
#407 = ORIENTED_EDGE ( 'NONE', *, *, #677, .F. ) ;
#408 = DIRECTION ( 'NONE',  ( 1.000000000000000000, 1.734723475976807094E-15, 0.000000000000000000 ) ) ;
#409 = CARTESIAN_POINT ( 'NONE',  ( -6.000012000024001146, -12.47850263194799858, -2.250025400050998048 ) ) ;
#410 = ORIENTED_EDGE ( 'NONE', *, *, #882, .T. ) ;
#411 = EDGE_CURVE ( 'NONE', #252, #1113, #103, .T. ) ;
#412 = ORIENTED_EDGE ( 'NONE', *, *, #132, .T. ) ;
#413 = PRODUCT_DEFINITION_FORMATION_WITH_SPECIFIED_SOURCE ( 'ANY', '', #109, .NOT_KNOWN. ) ;
#414 = VECTOR ( 'NONE', #438, 1000.000000000000000 ) ;
#415 = AXIS2_PLACEMENT_3D ( 'NONE', #625, #547, #72 ) ;
#416 = ORIENTED_EDGE ( 'NONE', *, *, #567, .F. ) ;
#417 = AXIS2_PLACEMENT_3D ( 'NONE', #715, #1195, #322 ) ;
#418 = CYLINDRICAL_SURFACE ( 'NONE', #542, 2.000000000000000000 ) ;
#419 = AXIS2_PLACEMENT_3D ( 'NONE', #434, #258, #343 ) ;
#420 = CARTESIAN_POINT ( 'NONE',  ( -13.60002000004000422, -21.47850263194799680, 0.000000000000000000 ) ) ;
#421 = ORIENTED_EDGE ( 'NONE', *, *, #1239, .T. ) ;
#422 = EDGE_CURVE ( 'NONE', #211, #894, #497, .T. ) ;
#423 = ORIENTED_EDGE ( 'NONE', *, *, #789, .F. ) ;
#424 = DIRECTION ( 'NONE',  ( -0.7071067811868729791, -0.7071067811862220553, 0.000000000000000000 ) ) ;
#425 = ORIENTED_EDGE ( 'NONE', *, *, #1134, .F. ) ;
#426 = EDGE_CURVE ( 'NONE', #1235, #510, #372, .T. ) ;
#427 = ORIENTED_EDGE ( 'NONE', *, *, #769, .F. ) ;
#428 = DIRECTION ( 'NONE',  ( -0.000000000000000000, -0.000000000000000000, 1.000000000000000000 ) ) ;
#429 = FACE_BOUND ( 'NONE', #346, .T. ) ;
#430 = ORIENTED_EDGE ( 'NONE', *, *, #397, .F. ) ;
#431 = DIRECTION ( 'NONE',  ( 0.000000000000000000, 0.000000000000000000, -1.000000000000000000 ) ) ;
#432 = MANIFOLD_SOLID_BREP ( 'Aufsatz-Linear austragen8', #746 ) ;
#433 = DIRECTION ( 'NONE',  ( -0.000000000000000000, -0.000000000000000000, 1.000000000000000000 ) ) ;
#434 = CARTESIAN_POINT ( 'NONE',  ( -13.60002000003999889, 0.4999957999919936724, -10.10005080010200018 ) ) ;
#435 = DIRECTION ( 'NONE',  ( 0.000000000000000000, 0.000000000000000000, 1.000000000000000000 ) ) ;
#436 = EDGE_CURVE ( 'NONE', #626, #47, #963, .T. ) ;
#437 = ORIENTED_EDGE ( 'NONE', *, *, #127, .F. ) ;
#438 = DIRECTION ( 'NONE',  ( -1.479903883119559116E-16, -1.000000000000000000, 0.000000000000000000 ) ) ;
#439 = CIRCLE ( 'NONE', #1001, 2.909999999999720810 ) ;
#440 = FACE_BOUND ( 'NONE', #881, .T. ) ;
#441 = ORIENTED_EDGE ( 'NONE', *, *, #907, .T. ) ;
#442 = VERTEX_POINT ( 'NONE', #1237 ) ;
#443 = DIRECTION ( 'NONE',  ( -1.000000000000000000, 0.000000000000000000, 0.000000000000000000 ) ) ;
#444 = FACE_OUTER_BOUND ( 'NONE', #893, .T. ) ;
#445 = ORIENTED_EDGE ( 'NONE', *, *, #902, .T. ) ;
#446 = CARTESIAN_POINT ( 'NONE',  ( -10.40002000004000138, -1.700004200008000010, 28.39029540973073296 ) ) ;
#447 = EDGE_CURVE ( 'NONE', #1033, #1235, #1046, .T. ) ;
#448 = DIRECTION ( 'NONE',  ( -0.000000000000000000, -0.000000000000000000, 1.000000000000000000 ) ) ;
#449 = ORIENTED_EDGE ( 'NONE', *, *, #256, .F. ) ;
#450 = ORIENTED_EDGE ( 'NONE', *, *, #182, .F. ) ;
#451 = LINE ( 'NONE', #368, #121 ) ;
#452 = VERTEX_POINT ( 'NONE', #483 ) ;
#453 = DIRECTION ( 'NONE',  ( -0.000000000000000000, -0.000000000000000000, 1.000000000000000000 ) ) ;
#454 = CARTESIAN_POINT ( 'NONE',  ( -10.40002000004000138, -19.27850263194799751, 0.000000000000000000 ) ) ;
#455 = ORIENTED_EDGE ( 'NONE', *, *, #422, .T. ) ;
#456 = ADVANCED_FACE ( 'NONE', ( #561 ), #570, .T. ) ;
#457 = EDGE_CURVE ( 'NONE', #134, #727, #540, .T. ) ;
#458 = DIRECTION ( 'NONE',  ( 0.000000000000000000, -1.000000000000000000, 0.000000000000000000 ) ) ;
#459 = ORIENTED_EDGE ( 'NONE', *, *, #310, .T. ) ;
#460 = CIRCLE ( 'NONE', #899, 2.000000000000000000 ) ;
#461 = CIRCLE ( 'NONE', #23, 2.000000000000000000 ) ;
#462 = CYLINDRICAL_SURFACE ( 'NONE', #1066, 2.000000000000000000 ) ;
#463 = AXIS2_PLACEMENT_3D ( 'NONE', #950, #758, #289 ) ;
#464 = VECTOR ( 'NONE', #398, 1000.000000000000000 ) ;
#465 = ADVANCED_FACE ( 'NONE', ( #14 ), #382, .F. ) ;
#466 = DIRECTION ( 'NONE',  ( -1.000000000000000000, 1.489433594025377261E-16, 0.000000000000000000 ) ) ;
#467 = DIRECTION ( 'NONE',  ( 1.000000000000000000, 2.135878279796444366E-14, 0.000000000000000000 ) ) ;
#468 = CARTESIAN_POINT ( 'NONE',  ( 0.5999959999920007059, 0.4999957999920008334, -10.10005080010200018 ) ) ;
#469 = CARTESIAN_POINT ( 'NONE',  ( -12.40002000004000138, -7.690616022213998981, -1.600050800101999959 ) ) ;
#470 = DIRECTION ( 'NONE',  ( -1.000000000000000000, 0.000000000000000000, -0.000000000000000000 ) ) ;
#471 = CARTESIAN_POINT ( 'NONE',  ( -5.997681967971000283, -5.378502631947998935, -8.600050800102000181 ) ) ;
#472 = CARTESIAN_POINT ( 'NONE',  ( -5.997681967971000283, -5.378502631947998935, -8.600050800102000181 ) ) ;
#473 = CARTESIAN_POINT ( 'NONE',  ( -3.468871065687578081, -3.938636172692593362, -2.600050800101999737 ) ) ;
#474 = CYLINDRICAL_SURFACE ( 'NONE', #355, 2.909999999999395737 ) ;
#475 = EDGE_CURVE ( 'NONE', #113, #626, #7, .T. ) ;
#476 = DIRECTION ( 'NONE',  ( 0.7071067811858978702, 0.7071067811871972753, 0.000000000000000000 ) ) ;
#477 = VECTOR ( 'NONE', #734, 1000.000000000000000 ) ;
#478 = CIRCLE ( 'NONE', #63, 0.4500000000000918265 ) ;
#479 = AXIS2_PLACEMENT_3D ( 'NONE', #71, #745, #1154 ) ;
#480 = DIRECTION ( 'NONE',  ( 0.000000000000000000, 0.000000000000000000, -1.000000000000000000 ) ) ;
#481 = FACE_BOUND ( 'NONE', #630, .T. ) ;
#482 = CARTESIAN_POINT ( 'NONE',  ( -13.60002000003999889, 0.4999957999919941165, -10.10005080010200018 ) ) ;
#483 = CARTESIAN_POINT ( 'NONE',  ( -12.40002000004000138, -19.27850263194799751, 0.000000000000000000 ) ) ;
#484 = EDGE_CURVE ( 'NONE', #727, #306, #605, .T. ) ;
#485 = FACE_OUTER_BOUND ( 'NONE', #1178, .T. ) ;
#486 = DIRECTION ( 'NONE',  ( -0.000000000000000000, -0.000000000000000000, 1.000000000000000000 ) ) ;
#487 = CARTESIAN_POINT ( 'NONE',  ( 0.3999959999919982523, -19.27850263194799751, 0.000000000000000000 ) ) ;
#488 = ADVANCED_FACE ( 'NONE', ( #220 ), #133, .F. ) ;
#489 = CYLINDRICAL_SURFACE ( 'NONE', #919, 2.000000000000000444 ) ;
#490 = PRODUCT_DEFINITION_CONTEXT ( 'detailed design', #55, 'design' ) ;
#491 = DIRECTION ( 'NONE',  ( 0.000000000000000000, 0.000000000000000000, -1.000000000000000000 ) ) ;
#492 = ORIENTED_EDGE ( 'NONE', *, *, #46, .F. ) ;
#493 = CARTESIAN_POINT ( 'NONE',  ( -6.000012000024001146, -12.47850263194799858, -5.050025400050998314 ) ) ;
#494 = CARTESIAN_POINT ( 'NONE',  ( -10.40002000004000138, -19.27850263194799751, 28.39029540973073296 ) ) ;
#495 = EDGE_LOOP ( 'NONE', ( #86, #587, #36, #996 ) ) ;
#496 = VECTOR ( 'NONE', #774, 1000.000000000000000 ) ;
#497 = CIRCLE ( 'NONE', #218, 2.909999999999394849 ) ;
#498 = CARTESIAN_POINT ( 'NONE',  ( -10.40002000004000138, 0.2999957999920009888, -1.600050800101999959 ) ) ;
#499 = EDGE_CURVE ( 'NONE', #1106, #252, #674, .T. ) ;
#500 = VECTOR ( 'NONE', #618, 1000.000000000000000 ) ;
#501 = VERTEX_POINT ( 'NONE', #989 ) ;
#502 = DIRECTION ( 'NONE',  ( 0.000000000000000000, 0.000000000000000000, -1.000000000000000000 ) ) ;
#503 = DIRECTION ( 'NONE',  ( 0.000000000000000000, -1.000000000000000000, 0.000000000000000000 ) ) ;
#504 = ORIENTED_EDGE ( 'NONE', *, *, #628, .F. ) ;
#505 = DIRECTION ( 'NONE',  ( 1.000000000000000000, -0.000000000000000000, -0.000000000000000000 ) ) ;
#506 = EDGE_CURVE ( 'NONE', #205, #442, #1185, .T. ) ;
#507 = ORIENTED_EDGE ( 'NONE', *, *, #310, .F. ) ;
#508 = CARTESIAN_POINT ( 'NONE',  ( 0.5999959999919936005, 1.499995799992000611, -10.10005080010200018 ) ) ;
#509 = CARTESIAN_POINT ( 'NONE',  ( -13.60002000004000244, -21.47850263194799680, -10.10005080010200018 ) ) ;
#510 = VERTEX_POINT ( 'NONE', #232 ) ;
#511 = APPLICATION_PROTOCOL_DEFINITION ( 'draft international standard', 'automotive_design', 1998, #1093 ) ;
#512 = ORIENTED_EDGE ( 'NONE', *, *, #12, .T. ) ;
#513 = DIRECTION ( 'NONE',  ( 0.000000000000000000, -1.000000000000000000, 0.000000000000000000 ) ) ;
#514 = DIRECTION ( 'NONE',  ( -0.000000000000000000, -0.000000000000000000, 1.000000000000000000 ) ) ;
#515 = EDGE_CURVE ( 'NONE', #719, #609, #128, .T. ) ;
#516 = VERTEX_POINT ( 'NONE', #420 ) ;
#517 = VECTOR ( 'NONE', #276, 1000.000000000000000 ) ;
#518 = VERTEX_POINT ( 'NONE', #688 ) ;
#519 = AXIS2_PLACEMENT_3D ( 'NONE', #807, #42, #1124 ) ;
#520 = LINE ( 'NONE', #1111, #315 ) ;
#521 = CARTESIAN_POINT ( 'NONE',  ( 0.3999959999920006393, 0.2999957999919983798, 28.39029540973073296 ) ) ;
#522 = ORIENTED_EDGE ( 'NONE', *, *, #902, .F. ) ;
#523 = CONTEXT_DEPENDENT_SHAPE_REPRESENTATION ( #821, #765 ) ;
#524 = ORIENTED_EDGE ( 'NONE', *, *, #411, .T. ) ;
#525 = DIRECTION ( 'NONE',  ( 0.000000000000000000, 0.000000000000000000, -1.000000000000000000 ) ) ;
#526 = ORIENTED_EDGE ( 'NONE', *, *, #890, .F. ) ;
#527 = FACE_OUTER_BOUND ( 'NONE', #135, .T. ) ;
#528 = EDGE_LOOP ( 'NONE', ( #1092, #1207, #1133, #1123 ) ) ;
#529 = EDGE_LOOP ( 'NONE', ( #1187, #1118, #1120, #615, #925, #312, #584, #45 ) ) ;
#530 = CARTESIAN_POINT ( 'NONE',  ( -6.000012000024001146, -22.47850263194799680, -5.050025400050998314 ) ) ;
#531 = DIRECTION ( 'NONE',  ( -1.000000000000000000, 0.000000000000000000, -0.000000000000000000 ) ) ;
#532 = VERTEX_POINT ( 'NONE', #896 ) ;
#533 = CARTESIAN_POINT ( 'NONE',  ( -6.000012000024001146, -22.47850263194799680, -2.250025400050998048 ) ) ;
#534 = VERTEX_POINT ( 'NONE', #509 ) ;
#535 = CARTESIAN_POINT ( 'NONE',  ( -6.000012000024001146, -12.47850263194799858, -5.050025400050998314 ) ) ;
#536 = ORIENTED_EDGE ( 'NONE', *, *, #845, .F. ) ;
#537 = ADVANCED_FACE ( 'NONE', ( #795, #1196 ), #213, .T. ) ;
#538 = AXIS2_PLACEMENT_3D ( 'NONE', #472, #957, #563 ) ;
#539 = DIRECTION ( 'NONE',  ( 1.000000000000000000, -1.778766965770876123E-16, 0.000000000000000000 ) ) ;
#540 = CIRCLE ( 'NONE', #1153, 1.000000000000000000 ) ;
#541 = ORIENTED_EDGE ( 'NONE', *, *, #16, .F. ) ;
#542 = AXIS2_PLACEMENT_3D ( 'NONE', #710, #914, #253 ) ;
#543 = CARTESIAN_POINT ( 'NONE',  ( -3.834870135724000484, -2.763142459740997925, -1.600050800102000625 ) ) ;
#544 = VERTEX_POINT ( 'NONE', #323 ) ;
#545 = CARTESIAN_POINT ( 'NONE',  ( -12.60002000003999179, 1.499995799992000611, -10.10005080010200018 ) ) ;
#546 = EDGE_CURVE ( 'NONE', #452, #621, #884, .T. ) ;
#547 = DIRECTION ( 'NONE',  ( 0.000000000000000000, 0.000000000000000000, -1.000000000000000000 ) ) ;
#548 = ORIENTED_EDGE ( 'NONE', *, *, #499, .F. ) ;
#549 = ADVANCED_FACE ( 'NONE', ( #1181 ), #699, .T. ) ;
#550 = DIRECTION ( 'NONE',  ( 1.000000000000000000, 0.000000000000000000, 0.000000000000000000 ) ) ;
#551 = EDGE_LOOP ( 'NONE', ( #214, #800, #873, #386 ) ) ;
#552 = DIRECTION ( 'NONE',  ( 0.000000000000000000, 0.000000000000000000, -1.000000000000000000 ) ) ;
#553 = DIRECTION ( 'NONE',  ( -1.000000000000000000, 1.927470528864525489E-15, 0.000000000000000000 ) ) ;
#554 = VERTEX_POINT ( 'NONE', #487 ) ;
#555 = ADVANCED_FACE ( 'NONE', ( #33 ), #227, .T. ) ;
#556 = PLANE ( 'NONE',  #811 ) ;
#557 = LINE ( 'NONE', #1240, #606 ) ;
#558 = VERTEX_POINT ( 'NONE', #409 ) ;
#559 = AXIS2_PLACEMENT_3D ( 'NONE', #1069, #664, #299 ) ;
#560 = VECTOR ( 'NONE', #298, 1000.000000000000000 ) ;
#561 = FACE_OUTER_BOUND ( 'NONE', #1182, .T. ) ;
#562 = AXIS2_PLACEMENT_3D ( 'NONE', #870, #120, #588 ) ;
#563 = DIRECTION ( 'NONE',  ( 1.000000000000000000, 0.000000000000000000, 0.000000000000000000 ) ) ;
#564 = CARTESIAN_POINT ( 'NONE',  ( -1.600004000008001581, -21.27850263194799751, 0.000000000000000000 ) ) ;
#565 = CARTESIAN_POINT ( 'NONE',  ( -3.064123744231084245, -2.897492748165831244, -2.600050800101999737 ) ) ;
#566 = DIRECTION ( 'NONE',  ( 1.000000000000000000, 0.000000000000000000, 0.000000000000000000 ) ) ;
#567 = EDGE_CURVE ( 'NONE', #516, #142, #763, .T. ) ;
#568 = DIRECTION ( 'NONE',  ( 0.000000000000000000, 0.000000000000000000, 1.000000000000000000 ) ) ;
#569 = CARTESIAN_POINT ( 'NONE',  ( -5.997681967971000283, -5.378502631947998935, -10.10005080010200018 ) ) ;
#570 = CYLINDRICAL_SURFACE ( 'NONE', #1130, 0.9999999999999991118 ) ;
#571 = DIRECTION ( 'NONE',  ( 0.000000000000000000, 0.000000000000000000, -1.000000000000000000 ) ) ;
#572 = EDGE_CURVE ( 'NONE', #510, #1106, #316, .T. ) ;
#573 = LINE ( 'NONE', #656, #859 ) ;
#574 = AXIS2_PLACEMENT_3D ( 'NONE', #862, #935, #1159 ) ;
#575 = AXIS2_PLACEMENT_3D ( 'NONE', #246, #58, #531 ) ;
#576 = AXIS2_PLACEMENT_3D ( 'NONE', #1203, #332, #467 ) ;
#577 = CARTESIAN_POINT ( 'NONE',  ( 0.000000000000000000, 0.000000000000000000, 0.000000000000000000 ) ) ;
#578 = ADVANCED_FACE ( 'NONE', ( #973 ), #115, .F. ) ;
#579 = CARTESIAN_POINT ( 'NONE',  ( 0.5999959999919972642, -22.47850263194799680, -1.600050800102000625 ) ) ;
#580 =( NAMED_UNIT ( * ) SI_UNIT ( $, .STERADIAN. ) SOLID_ANGLE_UNIT ( ) );
#581 = ADVANCED_FACE ( 'NONE', ( #28 ), #583, .F. ) ;
#582 = ORIENTED_EDGE ( 'NONE', *, *, #1134, .T. ) ;
#583 = CYLINDRICAL_SURFACE ( 'NONE', #183, 2.000000000000000000 ) ;
#584 = ORIENTED_EDGE ( 'NONE', *, *, #1058, .T. ) ;
#585 = ADVANCED_FACE ( 'NONE', ( #444, #1008, #344, #429, #1102 ), #1112, .F. ) ;
#586 = PRODUCT ( 'enclousure', 'enclousure', '', ( #228 ) ) ;
#587 = ORIENTED_EDGE ( 'NONE', *, *, #1079, .F. ) ;
#588 = DIRECTION ( 'NONE',  ( -1.000000000000000000, 0.000000000000000000, 0.000000000000000000 ) ) ;
#589 = CARTESIAN_POINT ( 'NONE',  ( -3.516672084189363723, -2.444944408207361697, 9.244482919354950923 ) ) ;
#590 = ORIENTED_EDGE ( 'NONE', *, *, #67, .T. ) ;
#591 = VECTOR ( 'NONE', #262, 1000.000000000000000 ) ;
#592 = EDGE_CURVE ( 'NONE', #1184, #689, #877, .T. ) ;
#593 = AXIS2_PLACEMENT_3D ( 'NONE', #468, #847, #871 ) ;
#594 = AXIS2_PLACEMENT_3D ( 'NONE', #102, #1175, #1189 ) ;
#595 = ORIENTED_EDGE ( 'NONE', *, *, #397, .T. ) ;
#596 = EDGE_LOOP ( 'NONE', ( #18, #526, #172, #782 ) ) ;
#597 = EDGE_LOOP ( 'NONE', ( #1188, #1201, #635, #1094 ) ) ;
#598 = ADVANCED_FACE ( 'NONE', ( #153 ), #915, .T. ) ;
#599 = DIRECTION ( 'NONE',  ( -1.000000000000000000, 0.000000000000000000, -0.000000000000000000 ) ) ;
#600 = CARTESIAN_POINT ( 'NONE',  ( -5.997681967971000283, -5.378502631947998935, -2.600050800101999737 ) ) ;
#601 = ORIENTED_EDGE ( 'NONE', *, *, #622, .T. ) ;
#602 = ORIENTED_EDGE ( 'NONE', *, *, #132, .F. ) ;
#603 = DIRECTION ( 'NONE',  ( -1.489433594025377507E-16, -1.000000000000000000, 0.000000000000000000 ) ) ;
#604 = ADVANCED_FACE ( 'NONE', ( #817 ), #139, .F. ) ;
#605 = LINE ( 'NONE', #682, #119 ) ;
#606 = VECTOR ( 'NONE', #1135, 1000.000000000000000 ) ;
#607 = CIRCLE ( 'NONE', #631, 2.799999999999999378 ) ;
#608 = AXIS2_PLACEMENT_3D ( 'NONE', #454, #249, #833 ) ;
#609 = VERTEX_POINT ( 'NONE', #930 ) ;
#610 = AXIS2_PLACEMENT_3D ( 'NONE', #642, #1045, #10 ) ;
#611 = DIRECTION ( 'NONE',  ( -1.000000000000000000, 0.000000000000000000, 0.000000000000000000 ) ) ;
#612 = ORIENTED_EDGE ( 'NONE', *, *, #995, .F. ) ;
#613 = PRODUCT_DEFINITION ( 'UNKNOWN', '', #4, #490 ) ;
#614 = LINE ( 'NONE', #1114, #81 ) ;
#615 = ORIENTED_EDGE ( 'NONE', *, *, #816, .T. ) ;
#616 = ADVANCED_FACE ( 'NONE', ( #339 ), #259, .F. ) ;
#617 = ORIENTED_EDGE ( 'NONE', *, *, #393, .T. ) ;
#618 = DIRECTION ( 'NONE',  ( -0.000000000000000000, -0.000000000000000000, 1.000000000000000000 ) ) ;
#619 = DIRECTION ( 'NONE',  ( -1.000000000000000000, 0.000000000000000000, 0.000000000000000000 ) ) ;
#620 = ORIENTED_EDGE ( 'NONE', *, *, #67, .F. ) ;
#621 = VERTEX_POINT ( 'NONE', #633 ) ;
#622 = EDGE_CURVE ( 'NONE', #247, #158, #261, .T. ) ;
#623 = ORIENTED_EDGE ( 'NONE', *, *, #233, .T. ) ;
#624 = FACE_OUTER_BOUND ( 'NONE', #770, .T. ) ;
#625 = CARTESIAN_POINT ( 'NONE',  ( -10.00002000003999925, -10.00272941248000080, -8.600050800102000181 ) ) ;
#626 = VERTEX_POINT ( 'NONE', #1241 ) ;
#627 = CYLINDRICAL_SURFACE ( 'NONE', #391, 0.4499999999996716071 ) ;
#628 = EDGE_CURVE ( 'NONE', #208, #714, #728, .T. ) ;
#629 = VECTOR ( 'NONE', #776, 1000.000000000000000 ) ;
#630 = EDGE_LOOP ( 'NONE', ( #1088, #504 ) ) ;
#631 = AXIS2_PLACEMENT_3D ( 'NONE', #176, #663, #571 ) ;
#632 = CARTESIAN_POINT ( 'NONE',  ( 0.3999959999919979747, -21.27850263194799751, 0.000000000000000000 ) ) ;
#633 = CARTESIAN_POINT ( 'NONE',  ( -12.40002000004000138, -1.700004200008001121, 0.000000000000000000 ) ) ;
#634 = VECTOR ( 'NONE', #786, 1000.000000000000000 ) ;
#635 = ORIENTED_EDGE ( 'NONE', *, *, #924, .F. ) ;
#636 = AXIS2_PLACEMENT_3D ( 'NONE', #1089, #301, #988 ) ;
#637 = DIRECTION ( 'NONE',  ( -0.000000000000000000, -0.000000000000000000, -1.000000000000000000 ) ) ;
#638 = ORIENTED_EDGE ( 'NONE', *, *, #735, .F. ) ;
#639 = ORIENTED_EDGE ( 'NONE', *, *, #484, .T. ) ;
#640 = CARTESIAN_POINT ( 'NONE',  ( -1.600004000008001581, -21.27850263194799751, -1.600050800102000625 ) ) ;
#641 = ORIENTED_EDGE ( 'NONE', *, *, #749, .T. ) ;
#642 = CARTESIAN_POINT ( 'NONE',  ( -12.60002000004000244, -21.47850263194799680, -10.10005080010199841 ) ) ;
#643 = CARTESIAN_POINT ( 'NONE',  ( -12.60002000004000244, -22.47850263194799680, -10.10005080010200018 ) ) ;
#644 = CARTESIAN_POINT ( 'NONE',  ( 0.5999959999919974862, -22.47850263194799680, 0.000000000000000000 ) ) ;
#645 = PLANE ( 'NONE',  #479 ) ;
#646 = EDGE_CURVE ( 'NONE', #534, #304, #272, .T. ) ;
#647 = FACE_OUTER_BOUND ( 'NONE', #679, .T. ) ;
#648 = CARTESIAN_POINT ( 'NONE',  ( -3.064123744230124124, -3.533888851234550543, 9.244482919354950923 ) ) ;
#649 = ORIENTED_EDGE ( 'NONE', *, *, #572, .F. ) ;
#650 = DIRECTION ( 'NONE',  ( -1.000000000000000000, 0.000000000000000000, 0.000000000000000000 ) ) ;
#651 = FACE_OUTER_BOUND ( 'NONE', #596, .T. ) ;
#652 = ORIENTED_EDGE ( 'NONE', *, *, #769, .T. ) ;
#653 = VECTOR ( 'NONE', #362, 1000.000000000000000 ) ;
#654 = CARTESIAN_POINT ( 'NONE',  ( -2.000004000008000382, -10.00272941248000080, -8.600050800102000181 ) ) ;
#655 =( GEOMETRIC_REPRESENTATION_CONTEXT ( 3 ) GLOBAL_UNCERTAINTY_ASSIGNED_CONTEXT ( ( #1061 ) ) GLOBAL_UNIT_ASSIGNED_CONTEXT ( ( #842, #953, #580 ) ) REPRESENTATION_CONTEXT ( 'NONE', 'WORKASPACE' ) );
#656 = CARTESIAN_POINT ( 'NONE',  ( -3.064123744231248114, -2.897492748165995113, -2.600050800101999737 ) ) ;
#657 = AXIS2_PLACEMENT_3D ( 'NONE', #858, #757, #599 ) ;
#658 = ADVANCED_FACE ( 'NONE', ( #647 ), #462, .F. ) ;
#659 = FACE_OUTER_BOUND ( 'NONE', #1022, .T. ) ;
#660 = ORIENTED_EDGE ( 'NONE', *, *, #233, .F. ) ;
#661 = CARTESIAN_POINT ( 'NONE',  ( -3.516672084189238490, -2.444944408207486486, -1.600050800102000625 ) ) ;
#662 = CARTESIAN_POINT ( 'NONE',  ( 1.599995999992000595, 0.4999957999919935059, -10.10005080010200018 ) ) ;
#663 = DIRECTION ( 'NONE',  ( 0.000000000000000000, -1.000000000000000000, 0.000000000000000000 ) ) ;
#664 = DIRECTION ( 'NONE',  ( -0.000000000000000000, -0.000000000000000000, 1.000000000000000000 ) ) ;
#665 = DIRECTION ( 'NONE',  ( 1.000000000000000000, 0.000000000000000000, 0.000000000000000000 ) ) ;
#666 = SURFACE_STYLE_FILL_AREA ( #187 ) ;
#667 = DIRECTION ( 'NONE',  ( 0.000000000000000000, 0.000000000000000000, -1.000000000000000000 ) ) ;
#668 = EDGE_CURVE ( 'NONE', #934, #516, #837, .T. ) ;
#669 = ADVANCED_FACE ( 'NONE', ( #1144 ), #955, .F. ) ;
#670 = PLANE ( 'NONE',  #636 ) ;
#671 = VECTOR ( 'NONE', #177, 1000.000000000000000 ) ;
#672 = DIRECTION ( 'NONE',  ( 0.000000000000000000, 0.000000000000000000, -1.000000000000000000 ) ) ;
#673 = CIRCLE ( 'NONE', #979, 2.000000000000000000 ) ;
#674 = CIRCLE ( 'NONE', #691, 2.909999999999720810 ) ;
#675 = ORIENTED_EDGE ( 'NONE', *, *, #411, .F. ) ;
#676 = DIRECTION ( 'NONE',  ( -0.000000000000000000, 0.000000000000000000, -1.000000000000000000 ) ) ;
#677 = EDGE_CURVE ( 'NONE', #306, #534, #64, .T. ) ;
#678 = CARTESIAN_POINT ( 'NONE',  ( -10.00002000003999925, -10.00272941248000080, -8.600050800102000181 ) ) ;
#679 = EDGE_LOOP ( 'NONE', ( #582, #309, #620, #820 ) ) ;
#680 = CARTESIAN_POINT ( 'NONE',  ( -31.38278900063794197, 21.31296570903524312, -0.4350507806535003907 ) ) ;
#681 = ORIENTED_EDGE ( 'NONE', *, *, #622, .F. ) ;
#682 = CARTESIAN_POINT ( 'NONE',  ( 1.599995999991997042, -22.47850263194799680, -10.10005080010200018 ) ) ;
#683 = EDGE_LOOP ( 'NONE', ( #1040, #1171, #250, #536 ) ) ;
#684 = CARTESIAN_POINT ( 'NONE',  ( -3.516672084189488512, -2.444944408207486486, 9.244482919354950923 ) ) ;
#685 =( NAMED_UNIT ( * ) PLANE_ANGLE_UNIT ( ) SI_UNIT ( $, .RADIAN. ) );
#686 = ORIENTED_EDGE ( 'NONE', *, *, #383, .T. ) ;
#687 = DIRECTION ( 'NONE',  ( -1.000000000000000000, 0.000000000000000000, 0.000000000000000000 ) ) ;
#688 = CARTESIAN_POINT ( 'NONE',  ( 0.3999959999920004172, -1.700004200008001565, -1.600050800102000625 ) ) ;
#689 = VERTEX_POINT ( 'NONE', #1037 ) ;
#690 = ADVANCED_FACE ( 'NONE', ( #961 ), #949, .F. ) ;
#691 = AXIS2_PLACEMENT_3D ( 'NONE', #600, #514, #1078 ) ;
#692 = VECTOR ( 'NONE', #424, 1000.000000000000114 ) ;
#693 = ORIENTED_EDGE ( 'NONE', *, *, #907, .F. ) ;
#694 = DIRECTION ( 'NONE',  ( 1.000000000000000000, 0.000000000000000000, 0.000000000000000000 ) ) ;
#695 = CARTESIAN_POINT ( 'NONE',  ( -12.40002000004000138, -21.27850263194799751, 0.000000000000000000 ) ) ;
#696 = ADVANCED_FACE ( 'NONE', ( #95 ), #474, .F. ) ;
#697 = ORIENTED_EDGE ( 'NONE', *, *, #110, .T. ) ;
#698 = CARTESIAN_POINT ( 'NONE',  ( -8.000020000039999246, -2.100004200008000144, -8.600050800102000181 ) ) ;
#699 = PLANE ( 'NONE',  #43 ) ;
#700 = ORIENTED_EDGE ( 'NONE', *, *, #546, .F. ) ;
#701 = CARTESIAN_POINT ( 'NONE',  ( -10.40002000004000138, -21.27850263194799751, 0.000000000000000000 ) ) ;
#702 = LINE ( 'NONE', #721, #922 ) ;
#703 = VERTEX_POINT ( 'NONE', #661 ) ;
#704 = VERTEX_POINT ( 'NONE', #1 ) ;
#705 =( GEOMETRIC_REPRESENTATION_CONTEXT ( 3 ) GLOBAL_UNCERTAINTY_ASSIGNED_CONTEXT ( ( #21 ) ) GLOBAL_UNIT_ASSIGNED_CONTEXT ( ( #768, #685, #125 ) ) REPRESENTATION_CONTEXT ( 'NONE', 'WORKASPACE' ) );
#706 = VECTOR ( 'NONE', #984, 1000.000000000000000 ) ;
#707 = CIRCLE ( 'NONE', #608, 2.000000000000000000 ) ;
#708 = ORIENTED_EDGE ( 'NONE', *, *, #668, .T. ) ;
#709 = VECTOR ( 'NONE', #1119, 1000.000000000000000 ) ;
#710 = CARTESIAN_POINT ( 'NONE',  ( -10.00002000003999925, -2.100004200008000144, -8.600050800102000181 ) ) ;
#711 = VERTEX_POINT ( 'NONE', #173 ) ;
#712 = ORIENTED_EDGE ( 'NONE', *, *, #797, .F. ) ;
#713 = DIRECTION ( 'NONE',  ( 0.000000000000000000, 0.000000000000000000, 1.000000000000000000 ) ) ;
#714 = VERTEX_POINT ( 'NONE', #370 ) ;
#715 = CARTESIAN_POINT ( 'NONE',  ( -3.834870135724000484, -2.763142459740997925, 9.244482919354950923 ) ) ;
#716 = DIRECTION ( 'NONE',  ( -0.000000000000000000, -0.000000000000000000, 1.000000000000000000 ) ) ;
#717 = VERTEX_POINT ( 'NONE', #939 ) ;
#718 = CARTESIAN_POINT ( 'NONE',  ( -4.557815508715479247, -2.849691729664209028, -2.600050800101999737 ) ) ;
#719 = VERTEX_POINT ( 'NONE', #360 ) ;
#720 = LINE ( 'NONE', #330, #373 ) ;
#721 = CARTESIAN_POINT ( 'NONE',  ( -7.998850984005498432, 0.2999957999920005447, -1.600050800101999959 ) ) ;
#722 = CARTESIAN_POINT ( 'NONE',  ( -10.00002000003999925, -10.00272941248000080, -8.600050800102000181 ) ) ;
#723 = ORIENTED_EDGE ( 'NONE', *, *, #1216, .T. ) ;
#724 = ORIENTED_EDGE ( 'NONE', *, *, #188, .F. ) ;
#725 = ADVANCED_FACE ( 'NONE', ( #747 ), #282, .F. ) ;
#726 = VECTOR ( 'NONE', #248, 1000.000000000000114 ) ;
#727 = VERTEX_POINT ( 'NONE', #972 ) ;
#728 = CIRCLE ( 'NONE', #353, 2.909999999999720810 ) ;
#729 = CYLINDRICAL_SURFACE ( 'NONE', #1209, 2.000000000000000000 ) ;
#730 = VECTOR ( 'NONE', #1179, 1000.000000000000000 ) ;
#731 = ORIENTED_EDGE ( 'NONE', *, *, #781, .T. ) ;
#732 = FACE_OUTER_BOUND ( 'NONE', #300, .T. ) ;
#733 = DIRECTION ( 'NONE',  ( -0.000000000000000000, -0.000000000000000000, 1.000000000000000000 ) ) ;
#734 = DIRECTION ( 'NONE',  ( -0.000000000000000000, -0.000000000000000000, 1.000000000000000000 ) ) ;
#735 = EDGE_CURVE ( 'NONE', #1003, #609, #288, .T. ) ;
#736 = LINE ( 'NONE', #1042, #671 ) ;
#737 = DIRECTION ( 'NONE',  ( -0.000000000000000000, -0.000000000000000000, 1.000000000000000000 ) ) ;
#738 = VERTEX_POINT ( 'NONE', #387 ) ;
#739 = FACE_OUTER_BOUND ( 'NONE', #788, .T. ) ;
#740 = LINE ( 'NONE', #164, #517 ) ;
#741 = DIRECTION ( 'NONE',  ( 0.000000000000000000, 0.000000000000000000, -1.000000000000000000 ) ) ;
#742 = ADVANCED_FACE ( 'NONE', ( #785 ), #670, .F. ) ;
#743 = PRESENTATION_STYLE_ASSIGNMENT (( #197 ) ) ;
#744 = DIRECTION ( 'NONE',  ( -1.000000000000000000, 0.000000000000000000, 0.000000000000000000 ) ) ;
#745 = DIRECTION ( 'NONE',  ( 0.000000000000000000, 0.000000000000000000, -1.000000000000000000 ) ) ;
#746 = CLOSED_SHELL ( 'NONE', ( #798, #658, #215, #578, #696, #669, #347, #488, #962, #465, #604, #1186, #866, #585, #104, #616, #1071, #851, #456, #196, #555, #165, #1224, #690, #827, #843, #1038, #364, #295, #598, #742, #1193, #537, #271, #1047, #581, #101, #549, #725 ) ) ;
#747 = FACE_OUTER_BOUND ( 'NONE', #337, .T. ) ;
#748 = STYLED_ITEM ( 'NONE', ( #743 ), #432 ) ;
#749 = EDGE_CURVE ( 'NONE', #711, #211, #141, .T. ) ;
#750 = DIRECTION ( 'NONE',  ( -0.000000000000000000, -0.000000000000000000, 1.000000000000000000 ) ) ;
#751 = CARTESIAN_POINT ( 'NONE',  ( -4.153068187257887622, -2.444944408207111675, -2.600050800101999737 ) ) ;
#752 = CARTESIAN_POINT ( 'NONE',  ( -13.60002000003999889, 0.4999957999919936724, -10.10005080010200018 ) ) ;
#753 = CARTESIAN_POINT ( 'NONE',  ( -3.064123744230200952, -3.533888851234472828, -1.600050800102000625 ) ) ;
#754 = EDGE_CURVE ( 'NONE', #609, #532, #293, .T. ) ;
#755 = FACE_OUTER_BOUND ( 'NONE', #1020, .T. ) ;
#756 = CARTESIAN_POINT ( 'NONE',  ( -3.064123744230278668, -3.533888851234550543, -1.600050800102000625 ) ) ;
#757 = DIRECTION ( 'NONE',  ( 0.000000000000000000, 0.000000000000000000, -1.000000000000000000 ) ) ;
#758 = DIRECTION ( 'NONE',  ( -0.7071067811862220553, 0.7071067811868729791, 0.000000000000000000 ) ) ;
#759 = EDGE_CURVE ( 'NONE', #727, #1211, #314, .T. ) ;
#760 = SHAPE_REPRESENTATION_RELATIONSHIP ( 'NONE' , 'NONE' ,  #389, #144 ) ;
#761 = ORIENTED_EDGE ( 'NONE', *, *, #499, .T. ) ;
#762 = AXIS2_PLACEMENT_3D ( 'NONE', #363, #850, #266 ) ;
#763 = LINE ( 'NONE', #399, #1231 ) ;
#764 = AXIS2_PLACEMENT_3D ( 'NONE', #336, #819, #168 ) ;
#765 = PRODUCT_DEFINITION_SHAPE ( 'NONE', 'NONE',  #1244 ) ;
#766 = AXIS2_PLACEMENT_3D ( 'NONE', #37, #676, #694 ) ;
#767 = CARTESIAN_POINT ( 'NONE',  ( 0.5999959999919936005, 1.499995799992000611, -10.10005080010200018 ) ) ;
#768 =( LENGTH_UNIT ( ) NAMED_UNIT ( * ) SI_UNIT ( .MILLI., .METRE. ) );
#769 = EDGE_CURVE ( 'NONE', #304, #1081, #27, .T. ) ;
#770 = EDGE_LOOP ( 'NONE', ( #878, #910, #805, #59 ) ) ;
#771 = CARTESIAN_POINT ( 'NONE',  ( -10.40002000004000138, -1.700004200008000010, 0.000000000000000000 ) ) ;
#772 = DIRECTION ( 'NONE',  ( 0.000000000000000000, 1.000000000000000000, -0.000000000000000000 ) ) ;
#773 = ORIENTED_EDGE ( 'NONE', *, *, #592, .T. ) ;
#774 = DIRECTION ( 'NONE',  ( 0.000000000000000000, 0.000000000000000000, -1.000000000000000000 ) ) ;
#775 = SHAPE_REPRESENTATION ( 'enclousure', ( #1082, #60 ), #371 ) ;
#776 = DIRECTION ( 'NONE',  ( 0.000000000000000000, 0.000000000000000000, -1.000000000000000000 ) ) ;
#777 = ORIENTED_EDGE ( 'NONE', *, *, #749, .F. ) ;
#778 = CARTESIAN_POINT ( 'NONE',  ( 0.5999959999919985965, -12.60272941247999867, -8.600050800102000181 ) ) ;
#779 = DIRECTION ( 'NONE',  ( 0.7071067811866957875, 0.7071067811863992469, -0.000000000000000000 ) ) ;
#780 = EDGE_LOOP ( 'NONE', ( #235, #708, #65, #407 ) ) ;
#781 = EDGE_CURVE ( 'NONE', #113, #784, #864, .T. ) ;
#782 = ORIENTED_EDGE ( 'NONE', *, *, #1180, .F. ) ;
#783 = DIRECTION ( 'NONE',  ( -1.000000000000000000, 0.000000000000000000, 0.000000000000000000 ) ) ;
#784 = VERTEX_POINT ( 'NONE', #107 ) ;
#785 = FACE_OUTER_BOUND ( 'NONE', #982, .T. ) ;
#786 = DIRECTION ( 'NONE',  ( -0.000000000000000000, -1.000000000000000000, -0.000000000000000000 ) ) ;
#787 = CIRCLE ( 'NONE', #1026, 0.4499999999997869593 ) ;
#788 = EDGE_LOOP ( 'NONE', ( #348, #796, #840, #148 ) ) ;
#789 = EDGE_CURVE ( 'NONE', #304, #142, #1077, .T. ) ;
#790 = AXIS2_PLACEMENT_3D ( 'NONE', #521, #802, #1213 ) ;
#791 = CARTESIAN_POINT ( 'NONE',  ( -12.40002000004000138, -19.27850263194799751, -1.600050800102000625 ) ) ;
#792 = AXIS2_PLACEMENT_3D ( 'NONE', #1138, #284, #92 ) ;
#793 = VERTEX_POINT ( 'NONE', #226 ) ;
#794 = CARTESIAN_POINT ( 'NONE',  ( -2.000004000008000382, -10.00272941248000080, -1.600050800101999959 ) ) ;
#795 = FACE_OUTER_BOUND ( 'NONE', #1012, .T. ) ;
#796 = ORIENTED_EDGE ( 'NONE', *, *, #223, .T. ) ;
#797 = EDGE_CURVE ( 'NONE', #29, #325, #184, .T. ) ;
#798 = ADVANCED_FACE ( 'NONE', ( #1072 ), #874, .F. ) ;
#799 = APPLICATION_CONTEXT ( 'automotive_design' ) ;
#800 = ORIENTED_EDGE ( 'NONE', *, *, #194, .F. ) ;
#801 = LINE ( 'NONE', #698, #948 ) ;
#802 = DIRECTION ( 'NONE',  ( 1.000000000000000000, -1.205869454805837871E-16, 0.000000000000000000 ) ) ;
#803 = ORIENTED_EDGE ( 'NONE', *, *, #898, .T. ) ;
#804 = ORIENTED_EDGE ( 'NONE', *, *, #1223, .F. ) ;
#805 = ORIENTED_EDGE ( 'NONE', *, *, #974, .T. ) ;
#806 = EDGE_CURVE ( 'NONE', #717, #134, #889, .T. ) ;
#807 = CARTESIAN_POINT ( 'NONE',  ( -1.600004000007999583, -1.700004200008001343, 28.39029540973073296 ) ) ;
#808 = EDGE_LOOP ( 'NONE', ( #1125, #296, #455, #1027 ) ) ;
#809 = DIRECTION ( 'NONE',  ( -0.000000000000000000, -0.000000000000000000, -1.000000000000000000 ) ) ;
#810 = ORIENTED_EDGE ( 'NONE', *, *, #202, .T. ) ;
#811 = AXIS2_PLACEMENT_3D ( 'NONE', #945, #466, #1238 ) ;
#812 = PRESENTATION_LAYER_ASSIGNMENT (  '', '', ( #748 ) ) ;
#813 = LINE ( 'NONE', #701, #41 ) ;
#814 = AXIS2_PLACEMENT_3D ( 'NONE', #1160, #8, #470 ) ;
#815 = CARTESIAN_POINT ( 'NONE',  ( -10.40002000004000138, -1.700004200008000010, -1.600050800102000625 ) ) ;
#816 = EDGE_CURVE ( 'NONE', #621, #1003, #241, .T. ) ;
#817 = FACE_OUTER_BOUND ( 'NONE', #528, .T. ) ;
#818 = ORIENTED_EDGE ( 'NONE', *, *, #668, .F. ) ;
#819 = DIRECTION ( 'NONE',  ( 0.000000000000000000, -1.000000000000000000, -0.000000000000000000 ) ) ;
#820 = ORIENTED_EDGE ( 'NONE', *, *, #974, .F. ) ;
#821 =( REPRESENTATION_RELATIONSHIP ('NONE','NONE', #775, #389 ) REPRESENTATION_RELATIONSHIP_WITH_TRANSFORMATION ( #912 )SHAPE_REPRESENTATION_RELATIONSHIP( ) );
#822 = EDGE_LOOP ( 'NONE', ( #175, #1202 ) ) ;
#823 = DIRECTION ( 'NONE',  ( 0.000000000000000000, 0.000000000000000000, -1.000000000000000000 ) ) ;
#824 = DIRECTION ( 'NONE',  ( 1.000000000000000000, 0.000000000000000000, 0.000000000000000000 ) ) ;
#825 = ORIENTED_EDGE ( 'NONE', *, *, #326, .F. ) ;
#826 = ORIENTED_EDGE ( 'NONE', *, *, #20, .F. ) ;
#827 = ADVANCED_FACE ( 'NONE', ( #883 ), #32, .F. ) ;
#828 = ORIENTED_EDGE ( 'NONE', *, *, #806, .F. ) ;
#829 = CARTESIAN_POINT ( 'NONE',  ( -12.00002000003999925, -2.100004200007999700, -1.600050800101999959 ) ) ;
#830 = ORIENTED_EDGE ( 'NONE', *, *, #506, .T. ) ;
#831 = DIRECTION ( 'NONE',  ( 0.000000000000000000, -0.000000000000000000, 1.000000000000000000 ) ) ;
#832 = DIRECTION ( 'NONE',  ( 1.000000000000000000, 0.000000000000000000, 0.000000000000000000 ) ) ;
#833 = DIRECTION ( 'NONE',  ( 1.000000000000000000, 0.000000000000000000, 0.000000000000000000 ) ) ;
#834 = ORIENTED_EDGE ( 'NONE', *, *, #475, .T. ) ;
#835 = EDGE_CURVE ( 'NONE', #719, #518, #1232, .T. ) ;
#836 = CARTESIAN_POINT ( 'NONE',  ( -10.40002000004000138, -21.27850263194799751, 0.000000000000000000 ) ) ;
#837 = CIRCLE ( 'NONE', #200, 1.000000000000000888 ) ;
#838 = DIRECTION ( 'NONE',  ( -1.205869454805837871E-16, -1.000000000000000000, 0.000000000000000000 ) ) ;
#839 = VECTOR ( 'NONE', #403, 1000.000000000000000 ) ;
#840 = ORIENTED_EDGE ( 'NONE', *, *, #806, .T. ) ;
#841 = DIRECTION ( 'NONE',  ( 1.000000000000000000, 0.000000000000000000, 0.000000000000000000 ) ) ;
#842 =( LENGTH_UNIT ( ) NAMED_UNIT ( * ) SI_UNIT ( .MILLI., .METRE. ) );
#843 = ADVANCED_FACE ( 'NONE', ( #624 ), #418, .F. ) ;
#844 = FACE_OUTER_BOUND ( 'NONE', #230, .T. ) ;
#845 = EDGE_CURVE ( 'NONE', #1003, #169, #1007, .T. ) ;
#846 = DIRECTION ( 'NONE',  ( -0.000000000000000000, -0.000000000000000000, 1.000000000000000000 ) ) ;
#847 = DIRECTION ( 'NONE',  ( 0.000000000000000000, 0.000000000000000000, -1.000000000000000000 ) ) ;
#848 = ORIENTED_EDGE ( 'NONE', *, *, #1018, .F. ) ;
#849 = CARTESIAN_POINT ( 'NONE',  ( -13.60002000003999889, 0.4999957999919923957, 0.000000000000000000 ) ) ;
#850 = DIRECTION ( 'NONE',  ( 0.000000000000000000, 0.000000000000000000, -1.000000000000000000 ) ) ;
#851 = ADVANCED_FACE ( 'NONE', ( #57 ), #157, .F. ) ;
#852 = ORIENTED_EDGE ( 'NONE', *, *, #924, .T. ) ;
#853 = DIRECTION ( 'NONE',  ( -0.000000000000000000, -0.000000000000000000, 1.000000000000000000 ) ) ;
#854 = DIRECTION ( 'NONE',  ( -0.000000000000000000, -0.000000000000000000, 1.000000000000000000 ) ) ;
#855 = DIRECTION ( 'NONE',  ( 0.000000000000000000, 0.000000000000000000, -1.000000000000000000 ) ) ;
#856 = CARTESIAN_POINT ( 'NONE',  ( -10.00002000003999925, -2.100004200008000144, -8.600050800102000181 ) ) ;
#857 = VECTOR ( 'NONE', #283, 1000.000000000000000 ) ;
#858 = CARTESIAN_POINT ( 'NONE',  ( -7.998850984005500209, -7.690616022213998981, -2.600050800101999737 ) ) ;
#859 = VECTOR ( 'NONE', #96, 1000.000000000000114 ) ;
#860 = DIRECTION ( 'NONE',  ( -1.000000000000000000, 0.000000000000000000, 0.000000000000000000 ) ) ;
#861 = VECTOR ( 'NONE', #603, 1000.000000000000000 ) ;
#862 = CARTESIAN_POINT ( 'NONE',  ( -12.60002000003999889, 0.4999957999920006113, 0.000000000000000000 ) ) ;
#863 = DIRECTION ( 'NONE',  ( 0.000000000000000000, 0.000000000000000000, -1.000000000000000000 ) ) ;
#864 = LINE ( 'NONE', #508, #730 ) ;
#865 = DIRECTION ( 'NONE',  ( -1.000000000000000000, 0.000000000000000000, 0.000000000000000000 ) ) ;
#866 = ADVANCED_FACE ( 'NONE', ( #245 ), #1021, .F. ) ;
#867 = DIRECTION ( 'NONE',  ( 0.000000000000000000, 0.000000000000000000, -1.000000000000000000 ) ) ;
#868 = FACE_OUTER_BOUND ( 'NONE', #268, .T. ) ;
#869 = EDGE_LOOP ( 'NONE', ( #524, #825, #445, #234 ) ) ;
#870 = CARTESIAN_POINT ( 'NONE',  ( -10.00002000003999925, -2.100004200008000144, -8.600050800102000181 ) ) ;
#871 = DIRECTION ( 'NONE',  ( -1.000000000000000000, 0.000000000000000000, 0.000000000000000000 ) ) ;
#872 = DIRECTION ( 'NONE',  ( 0.000000000000000000, 0.000000000000000000, -1.000000000000000000 ) ) ;
#873 = ORIENTED_EDGE ( 'NONE', *, *, #379, .T. ) ;
#874 = CYLINDRICAL_SURFACE ( 'NONE', #1086, 2.799999999999999378 ) ;
#875 = DIRECTION ( 'NONE',  ( 0.000000000000000000, 0.000000000000000000, 1.000000000000000000 ) ) ;
#876 = AXIS2_PLACEMENT_3D ( 'NONE', #767, #124, #867 ) ;
#877 = CIRCLE ( 'NONE', #1191, 2.000000000000000000 ) ;
#878 = ORIENTED_EDGE ( 'NONE', *, *, #2, .F. ) ;
#879 = CIRCLE ( 'NONE', #162, 2.000000000000000000 ) ;
#880 = DIRECTION ( 'NONE',  ( 0.000000000000000000, -1.000000000000000000, -0.000000000000000000 ) ) ;
#881 = EDGE_LOOP ( 'NONE', ( #328, #693 ) ) ;
#882 = EDGE_CURVE ( 'NONE', #169, #1146, #9, .T. ) ;
#883 = FACE_OUTER_BOUND ( 'NONE', #52, .T. ) ;
#884 = LINE ( 'NONE', #695, #981 ) ;
#885 = ORIENTED_EDGE ( 'NONE', *, *, #1116, .T. ) ;
#886 = LINE ( 'NONE', #791, #496 ) ;
#887 = CARTESIAN_POINT ( 'NONE',  ( -12.40002000004000138, -19.27850263194799751, -1.600050800101999959 ) ) ;
#888 = ORIENTED_EDGE ( 'NONE', *, *, #143, .T. ) ;
#889 = LINE ( 'NONE', #114, #464 ) ;
#890 = EDGE_CURVE ( 'NONE', #689, #554, #48, .T. ) ;
#891 = CARTESIAN_POINT ( 'NONE',  ( -1.600004000007999139, 0.2999957999919987683, 0.000000000000000000 ) ) ;
#892 = CARTESIAN_POINT ( 'NONE',  ( -2.000004000008000382, -10.00272941248000080, -8.600050800102000181 ) ) ;
#893 = EDGE_LOOP ( 'NONE', ( #437, #129, #400, #410, #1110, #723, #724, #773 ) ) ;
#894 = VERTEX_POINT ( 'NONE', #146 ) ;
#895 = CYLINDRICAL_SURFACE ( 'NONE', #417, 0.4500000000000918265 ) ;
#896 = CARTESIAN_POINT ( 'NONE',  ( 0.3999959999920004172, -1.700004200008001565, 0.000000000000000000 ) ) ;
#897 = ORIENTED_EDGE ( 'NONE', *, *, #515, .T. ) ;
#898 = EDGE_CURVE ( 'NONE', #169, #719, #702, .T. ) ;
#899 = AXIS2_PLACEMENT_3D ( 'NONE', #856, #1148, #377 ) ;
#900 = AXIS2_PLACEMENT_3D ( 'NONE', #1121, #69, #1126 ) ;
#901 = ORIENTED_EDGE ( 'NONE', *, *, #484, .F. ) ;
#902 = EDGE_CURVE ( 'NONE', #406, #711, #1199, .T. ) ;
#903 = AXIS2_PLACEMENT_3D ( 'NONE', #654, #853, #1053 ) ;
#904 = ORIENTED_EDGE ( 'NONE', *, *, #789, .T. ) ;
#905 = DIRECTION ( 'NONE',  ( -1.000000000000000000, -8.673617379884035472E-16, 0.000000000000000000 ) ) ;
#906 = VERTEX_POINT ( 'NONE', #1013 ) ;
#907 = EDGE_CURVE ( 'NONE', #324, #442, #1155, .T. ) ;
#908 = DIRECTION ( 'NONE',  ( -0.000000000000000000, -0.000000000000000000, 1.000000000000000000 ) ) ;
#909 = DIRECTION ( 'NONE',  ( -0.000000000000000000, -0.000000000000000000, 1.000000000000000000 ) ) ;
#910 = ORIENTED_EDGE ( 'NONE', *, *, #797, .T. ) ;
#911 = EDGE_LOOP ( 'NONE', ( #1034, #345, #1218, #423 ) ) ;
#912 = ITEM_DEFINED_TRANSFORMATION ( 'NONE', 'NONE', #60,  #180 ) ;
#913 = ORIENTED_EDGE ( 'NONE', *, *, #1036, .T. ) ;
#914 = DIRECTION ( 'NONE',  ( -0.000000000000000000, -0.000000000000000000, 1.000000000000000000 ) ) ;
#915 = CYLINDRICAL_SURFACE ( 'NONE', #263, 1.000000000000000888 ) ;
#916 = ORIENTED_EDGE ( 'NONE', *, *, #845, .T. ) ;
#917 = LINE ( 'NONE', #1127, #1169 ) ;
#918 = ORIENTED_EDGE ( 'NONE', *, *, #457, .T. ) ;
#919 = AXIS2_PLACEMENT_3D ( 'NONE', #892, #1091, #334 ) ;
#920 = COLOUR_RGB ( '',0.7921568627450980005, 0.8196078431372548767, 0.9333333333333333481 ) ;
#921 = ORIENTED_EDGE ( 'NONE', *, *, #985, .T. ) ;
#922 = VECTOR ( 'NONE', #539, 1000.000000000000000 ) ;
#923 = DIRECTION ( 'NONE',  ( 0.000000000000000000, 0.000000000000000000, -1.000000000000000000 ) ) ;
#924 = EDGE_CURVE ( 'NONE', #544, #1030, #879, .T. ) ;
#925 = ORIENTED_EDGE ( 'NONE', *, *, #735, .T. ) ;
#926 = LINE ( 'NONE', #938, #414 ) ;
#927 = CARTESIAN_POINT ( 'NONE',  ( -10.00002000003999925, -10.00272941248000080, -1.600050800101999959 ) ) ;
#928 = ORIENTED_EDGE ( 'NONE', *, *, #229, .T. ) ;
#929 = LINE ( 'NONE', #640, #629 ) ;
#930 = CARTESIAN_POINT ( 'NONE',  ( -1.600004000007999139, 0.2999957999919987683, 0.000000000000000000 ) ) ;
#931 = VERTEX_POINT ( 'NONE', #1219 ) ;
#932 = CARTESIAN_POINT ( 'NONE',  ( -3.516672084189363723, -2.444944408207361697, -1.600050800102000625 ) ) ;
#933 = CARTESIAN_POINT ( 'NONE',  ( -13.60002000003999889, 0.4999957999919941165, -10.10005080010200018 ) ) ;
#934 = VERTEX_POINT ( 'NONE', #152 ) ;
#935 = DIRECTION ( 'NONE',  ( -0.000000000000000000, -0.000000000000000000, -1.000000000000000000 ) ) ;
#936 = FACE_OUTER_BOUND ( 'NONE', #217, .T. ) ;
#937 = ORIENTED_EDGE ( 'NONE', *, *, #303, .T. ) ;
#938 = CARTESIAN_POINT ( 'NONE',  ( 1.599995999992000595, 0.4999957999919935059, 0.000000000000000000 ) ) ;
#939 = CARTESIAN_POINT ( 'NONE',  ( 1.599995999991997264, -21.47850263194799680, 0.000000000000000000 ) ) ;
#940 = CARTESIAN_POINT ( 'NONE',  ( -12.60002000004000244, -22.47850263194799680, -10.10005080010199841 ) ) ;
#941 = APPLICATION_CONTEXT ( 'automotive_design' ) ;
#942 = PRODUCT_RELATED_PRODUCT_CATEGORY ( 'part', '', ( #109 ) ) ;
#943 = CIRCLE ( 'NONE', #559, 2.000000000000000000 ) ;
#944 = VECTOR ( 'NONE', #149, 1000.000000000000000 ) ;
#945 = CARTESIAN_POINT ( 'NONE',  ( 1.599995999992000595, 0.4999957999919935059, -10.10005080010200018 ) ) ;
#946 = CIRCLE ( 'NONE', #278, 2.000000000000000000 ) ;
#947 = LINE ( 'NONE', #632, #1062 ) ;
#948 = VECTOR ( 'NONE', #1096, 1000.000000000000000 ) ;
#949 = CYLINDRICAL_SURFACE ( 'NONE', #903, 2.000000000000000444 ) ;
#950 = CARTESIAN_POINT ( 'NONE',  ( -4.557815508715677311, -2.849691729664529216, 9.244482919354950923 ) ) ;
#951 = CARTESIAN_POINT ( 'NONE',  ( -3.834870135724000484, -2.763142459740997925, -2.600050800101999737 ) ) ;
#952 = PLANE ( 'NONE',  #814 ) ;
#953 =( NAMED_UNIT ( * ) PLANE_ANGLE_UNIT ( ) SI_UNIT ( $, .RADIAN. ) );
#954 = CARTESIAN_POINT ( 'NONE',  ( 0.5999959999919936005, 1.499995799992000611, -10.10005080010200018 ) ) ;
#955 = PLANE ( 'NONE',  #792 ) ;
#956 = DIRECTION ( 'NONE',  ( 0.000000000000000000, 0.000000000000000000, -1.000000000000000000 ) ) ;
#957 = DIRECTION ( 'NONE',  ( -0.000000000000000000, -0.000000000000000000, 1.000000000000000000 ) ) ;
#958 = AXIS2_PLACEMENT_3D ( 'NONE', #535, #458, #286 ) ;
#959 = LINE ( 'NONE', #30, #22 ) ;
#960 = AXIS2_PLACEMENT_3D ( 'NONE', #722, #716, #254 ) ;
#961 = FACE_OUTER_BOUND ( 'NONE', #1085, .T. ) ;
#962 = ADVANCED_FACE ( 'NONE', ( #131 ), #895, .F. ) ;
#963 = LINE ( 'NONE', #662, #1173 ) ;
#964 = AXIS2_PLACEMENT_3D ( 'NONE', #815, #428, #905 ) ;
#965 = CARTESIAN_POINT ( 'NONE',  ( -10.00002000003999925, -10.00272941248000080, -1.600050800101999959 ) ) ;
#966 = CARTESIAN_POINT ( 'NONE',  ( -12.40002000004000138, 0.2999957999920006557, 0.000000000000000000 ) ) ;
#967 = DIRECTION ( 'NONE',  ( 0.000000000000000000, 0.000000000000000000, -1.000000000000000000 ) ) ;
#968 = PRODUCT_DEFINITION_SHAPE ( 'NONE', 'NONE',  #369 ) ;
#969 = LINE ( 'NONE', #684, #706 ) ;
#970 = CARTESIAN_POINT ( 'NONE',  ( 0.000000000000000000, 0.000000000000000000, 0.000000000000000000 ) ) ;
#971 = ORIENTED_EDGE ( 'NONE', *, *, #447, .F. ) ;
#972 = CARTESIAN_POINT ( 'NONE',  ( 0.5999959999919972642, -22.47850263194799680, -10.10005080010200018 ) ) ;
#973 = FACE_OUTER_BOUND ( 'NONE', #1198, .T. ) ;
#974 = EDGE_CURVE ( 'NONE', #325, #151, #801, .T. ) ;
#975 = PLANE ( 'NONE',  #390 ) ;
#976 = ORIENTED_EDGE ( 'NONE', *, *, #256, .T. ) ;
#977 = DIRECTION ( 'NONE',  ( -0.000000000000000000, -0.000000000000000000, -1.000000000000000000 ) ) ;
#978 = CARTESIAN_POINT ( 'NONE',  ( -6.000011430023000081, -6.000011430023000081, 0.000000000000000000 ) ) ;
#979 = AXIS2_PLACEMENT_3D ( 'NONE', #78, #1143, #1023 ) ;
#980 = ORIENTED_EDGE ( 'NONE', *, *, #759, .T. ) ;
#981 = VECTOR ( 'NONE', #772, 1000.000000000000000 ) ;
#982 = EDGE_LOOP ( 'NONE', ( #700, #68, #697, #1009 ) ) ;
#983 = AXIS2_PLACEMENT_3D ( 'NONE', #76, #1051, #553 ) ;
#984 = DIRECTION ( 'NONE',  ( -0.000000000000000000, -0.000000000000000000, -1.000000000000000000 ) ) ;
#985 = EDGE_CURVE ( 'NONE', #626, #134, #231, .T. ) ;
#986 = DIRECTION ( 'NONE',  ( -1.000000000000000000, 0.000000000000000000, 0.000000000000000000 ) ) ;
#987 = VERTEX_POINT ( 'NONE', #998 ) ;
#988 = DIRECTION ( 'NONE',  ( 0.000000000000000000, 0.000000000000000000, 1.000000000000000000 ) ) ;
#989 = CARTESIAN_POINT ( 'NONE',  ( -3.064123744231411539, -2.897492748166158538, -1.600050800102000625 ) ) ;
#990 = ORIENTED_EDGE ( 'NONE', *, *, #781, .F. ) ;
#991 = DIRECTION ( 'NONE',  ( -1.000000000000000000, 0.000000000000000000, 0.000000000000000000 ) ) ;
#992 = ORIENTED_EDGE ( 'NONE', *, *, #379, .F. ) ;
#993 = CARTESIAN_POINT ( 'NONE',  ( -6.000012000024001146, -22.47850263194799680, -5.050025400050998314 ) ) ;
#994 = DIRECTION ( 'NONE',  ( -0.000000000000000000, -0.000000000000000000, 1.000000000000000000 ) ) ;
#995 = EDGE_CURVE ( 'NONE', #208, #211, #520, .T. ) ;
#996 = ORIENTED_EDGE ( 'NONE', *, *, #515, .F. ) ;
#997 = ORIENTED_EDGE ( 'NONE', *, *, #426, .F. ) ;
#998 = CARTESIAN_POINT ( 'NONE',  ( -8.000020000039999246, -10.00272941248000080, -1.600050800101999959 ) ) ;
#999 = CARTESIAN_POINT ( 'NONE',  ( -12.60002000004000244, -21.47850263194799680, 16.52648728866691741 ) ) ;
#1000 = EDGE_CURVE ( 'NONE', #442, #324, #335, .T. ) ;
#1001 = AXIS2_PLACEMENT_3D ( 'NONE', #94, #1234, #171 ) ;
#1002 = CIRCLE ( 'NONE', #1105, 2.000000000000000000 ) ;
#1003 = VERTEX_POINT ( 'NONE', #51 ) ;
#1004 = VECTOR ( 'NONE', #476, 1000.000000000000000 ) ;
#1005 = AXIS2_PLACEMENT_3D ( 'NONE', #778, #307, #219 ) ;
#1006 = LINE ( 'NONE', #50, #1129 ) ;
#1007 = LINE ( 'NONE', #338, #709 ) ;
#1008 = FACE_BOUND ( 'NONE', #145, .T. ) ;
#1009 = ORIENTED_EDGE ( 'NONE', *, *, #342, .T. ) ;
#1010 = CARTESIAN_POINT ( 'NONE',  ( -3.382321795764000161, -3.215690799700998248, 9.244482919354950923 ) ) ;
#1011 = ORIENTED_EDGE ( 'NONE', *, *, #572, .T. ) ;
#1012 = EDGE_LOOP ( 'NONE', ( #848, #804, #40, #416, #818, #209, #449, #39 ) ) ;
#1013 = CARTESIAN_POINT ( 'NONE',  ( -12.60002000003999179, 1.499995799991999945, 0.000000000000000000 ) ) ;
#1014 = DIRECTION ( 'NONE',  ( 1.000000000000000000, 0.000000000000000000, 0.000000000000000000 ) ) ;
#1015 = ORIENTED_EDGE ( 'NONE', *, *, #1223, .T. ) ;
#1016 = CARTESIAN_POINT ( 'NONE',  ( -3.064123744231084245, -2.897492748165831244, 9.244482919354950923 ) ) ;
#1017 = ORIENTED_EDGE ( 'NONE', *, *, #426, .T. ) ;
#1018 = EDGE_CURVE ( 'NONE', #784, #47, #1028, .T. ) ;
#1019 =( NAMED_UNIT ( * ) SI_UNIT ( $, .STERADIAN. ) SOLID_ANGLE_UNIT ( ) );
#1020 = EDGE_LOOP ( 'NONE', ( #612, #1197, #257, #421, #885, #761, #191, #641 ) ) ;
#1021 = CYLINDRICAL_SURFACE ( 'NONE', #519, 2.000000000000000000 ) ;
#1022 = EDGE_LOOP ( 'NONE', ( #541, #681 ) ) ;
#1023 = DIRECTION ( 'NONE',  ( -1.000000000000000000, 0.000000000000000000, 0.000000000000000000 ) ) ;
#1024 = DIRECTION ( 'NONE',  ( -1.000000000000000000, 9.637352644313628514E-16, 0.000000000000000000 ) ) ;
#1025 = EDGE_LOOP ( 'NONE', ( #340, #329, #1128, #512 ) ) ;
#1026 = AXIS2_PLACEMENT_3D ( 'NONE', #269, #667, #744 ) ;
#1027 = ORIENTED_EDGE ( 'NONE', *, *, #319, .F. ) ;
#1028 = CIRCLE ( 'NONE', #576, 0.9999999999999997780 ) ;
#1029 = DIRECTION ( 'NONE',  ( -1.000000000000000000, 0.000000000000000000, 0.000000000000000000 ) ) ;
#1030 = VERTEX_POINT ( 'NONE', #349 ) ;
#1031 = DIRECTION ( 'NONE',  ( 1.000000000000000000, 0.000000000000000000, 0.000000000000000000 ) ) ;
#1032 = DIRECTION ( 'NONE',  ( -1.000000000000000000, 0.000000000000000000, 0.000000000000000000 ) ) ;
#1033 = VERTEX_POINT ( 'NONE', #1243 ) ;
#1034 = ORIENTED_EDGE ( 'NONE', *, *, #646, .F. ) ;
#1035 = CARTESIAN_POINT ( 'NONE',  ( -1.600004000008001581, -19.27850263194799751, 28.39029540973073296 ) ) ;
#1036 = EDGE_CURVE ( 'NONE', #1235, #501, #1052, .T. ) ;
#1037 = CARTESIAN_POINT ( 'NONE',  ( 0.3999959999919977527, -19.27850263194799751, -1.600050800101999959 ) ) ;
#1038 = ADVANCED_FACE ( 'NONE', ( #936 ), #645, .F. ) ;
#1039 = DIRECTION ( 'NONE',  ( 0.000000000000000000, 0.000000000000000000, 1.000000000000000000 ) ) ;
#1040 = ORIENTED_EDGE ( 'NONE', *, *, #816, .F. ) ;
#1041 = CARTESIAN_POINT ( 'NONE',  ( -8.000020000039999246, -10.00272941248000080, -8.600050800102000181 ) ) ;
#1042 = CARTESIAN_POINT ( 'NONE',  ( -3.468871065687578081, -3.938636172692593362, 9.244482919354950923 ) ) ;
#1043 = EDGE_LOOP ( 'NONE', ( #1103, #1222, #25, #450 ) ) ;
#1044 = LINE ( 'NONE', #932, #726 ) ;
#1045 = DIRECTION ( 'NONE',  ( 0.000000000000000000, 0.000000000000000000, -1.000000000000000000 ) ) ;
#1046 = LINE ( 'NONE', #753, #1004 ) ;
#1047 = ADVANCED_FACE ( 'NONE', ( #651 ), #729, .F. ) ;
#1048 = VECTOR ( 'NONE', #280, 1000.000000000000000 ) ;
#1049 = DIRECTION ( 'NONE',  ( -0.000000000000000000, -0.000000000000000000, -1.000000000000000000 ) ) ;
#1050 = VECTOR ( 'NONE', #11, 1000.000000000000000 ) ;
#1051 = DIRECTION ( 'NONE',  ( -0.000000000000000000, -0.000000000000000000, 1.000000000000000000 ) ) ;
#1052 = CIRCLE ( 'NONE', #983, 0.4499999999996716071 ) ;
#1053 = DIRECTION ( 'NONE',  ( 1.000000000000000000, 0.000000000000000000, 0.000000000000000000 ) ) ;
#1054 = CARTESIAN_POINT ( 'NONE',  ( -4.153068187258011967, -2.444944408206986886, -1.600050800102000625 ) ) ;
#1055 = CARTESIAN_POINT ( 'NONE',  ( -10.00002000003999925, -2.100004200008000144, -1.600050800101999959 ) ) ;
#1056 = LINE ( 'NONE', #190, #80 ) ;
#1057 = DIRECTION ( 'NONE',  ( -0.000000000000000000, -0.000000000000000000, 1.000000000000000000 ) ) ;
#1058 = EDGE_CURVE ( 'NONE', #532, #554, #451, .T. ) ;
#1059 = DIRECTION ( 'NONE',  ( 0.7071067811868690933, 0.7071067811862258301, 0.000000000000000000 ) ) ;
#1060 = FACE_OUTER_BOUND ( 'NONE', #321, .T. ) ;
#1061 = UNCERTAINTY_MEASURE_WITH_UNIT (LENGTH_MEASURE( 1.000000000000000082E-05 ), #842, 'distance_accuracy_value', 'NONE');
#1062 = VECTOR ( 'NONE', #1029, 1000.000000000000000 ) ;
#1063 = EDGE_CURVE ( 'NONE', #558, #324, #91, .T. ) ;
#1064 = VECTOR ( 'NONE', #1156, 1000.000000000000000 ) ;
#1065 = DIRECTION ( 'NONE',  ( -0.000000000000000000, -0.000000000000000000, 1.000000000000000000 ) ) ;
#1066 = AXIS2_PLACEMENT_3D ( 'NONE', #1149, #737, #841 ) ;
#1067 = SURFACE_SIDE_STYLE ('',( #666 ) ) ;
#1068 = CARTESIAN_POINT ( 'NONE',  ( -8.907681967970395576, -5.378502631947998935, -1.600050800101999959 ) ) ;
#1069 = CARTESIAN_POINT ( 'NONE',  ( -10.40002000004000138, -19.27850263194799751, -1.600050800102000625 ) ) ;
#1070 = VERTEX_POINT ( 'NONE', #564 ) ;
#1071 = ADVANCED_FACE ( 'NONE', ( #659 ), #952, .F. ) ;
#1072 = FACE_OUTER_BOUND ( 'NONE', #350, .T. ) ;
#1073 = DIRECTION ( 'NONE',  ( -0.000000000000000000, -0.000000000000000000, 1.000000000000000000 ) ) ;
#1074 = ORIENTED_EDGE ( 'NONE', *, *, #16, .T. ) ;
#1075 = EDGE_CURVE ( 'NONE', #714, #208, #439, .T. ) ;
#1076 = VERTEX_POINT ( 'NONE', #829 ) ;
#1077 = LINE ( 'NONE', #482, #264 ) ;
#1078 = DIRECTION ( 'NONE',  ( -1.000000000000000000, 0.000000000000000000, 0.000000000000000000 ) ) ;
#1079 = EDGE_CURVE ( 'NONE', #532, #518, #1056, .T. ) ;
#1080 = DIRECTION ( 'NONE',  ( -1.000000000000000000, 1.778766965770876123E-16, 0.000000000000000000 ) ) ;
#1081 = VERTEX_POINT ( 'NONE', #545 ) ;
#1082 = AXIS2_PLACEMENT_3D ( 'NONE', #577, #713, #224 ) ;
#1083 = CIRCLE ( 'NONE', #958, 2.799999999999999378 ) ;
#1084 = AXIS2_PLACEMENT_3D ( 'NONE', #1139, #672, #860 ) ;
#1085 = EDGE_LOOP ( 'NONE', ( #1220, #1100, #1225, #1217 ) ) ;
#1086 = AXIS2_PLACEMENT_3D ( 'NONE', #493, #206, #502 ) ;
#1087 = APPLICATION_PROTOCOL_DEFINITION ( 'draft international standard', 'automotive_design', 1998, #799 ) ;
#1088 = ORIENTED_EDGE ( 'NONE', *, *, #1075, .F. ) ;
#1089 = CARTESIAN_POINT ( 'NONE',  ( -12.40002000004000138, -21.27850263194799751, 28.39029540973073296 ) ) ;
#1090 = CARTESIAN_POINT ( 'NONE',  ( -6.000012000024001146, -12.47850263194799858, -5.050025400050998314 ) ) ;
#1091 = DIRECTION ( 'NONE',  ( -0.000000000000000000, -0.000000000000000000, 1.000000000000000000 ) ) ;
#1092 = ORIENTED_EDGE ( 'NONE', *, *, #1079, .T. ) ;
#1093 = APPLICATION_CONTEXT ( 'automotive_design' ) ;
#1094 = ORIENTED_EDGE ( 'NONE', *, *, #1095, .F. ) ;
#1095 = EDGE_CURVE ( 'NONE', #931, #544, #1226, .T. ) ;
#1096 = DIRECTION ( 'NONE',  ( -0.000000000000000000, -0.000000000000000000, 1.000000000000000000 ) ) ;
#1097 = DIRECTION ( 'NONE',  ( 0.000000000000000000, -0.000000000000000000, -1.000000000000000000 ) ) ;
#1098 = ORIENTED_EDGE ( 'NONE', *, *, #422, .F. ) ;
#1099 = APPLICATION_PROTOCOL_DEFINITION ( 'draft international standard', 'automotive_design', 1998, #55 ) ;
#1100 = ORIENTED_EDGE ( 'NONE', *, *, #404, .T. ) ;
#1101 = DIRECTION ( 'NONE',  ( 0.000000000000000000, -1.000000000000000000, 0.000000000000000000 ) ) ;
#1102 = FACE_BOUND ( 'NONE', #44, .T. ) ;
#1103 = ORIENTED_EDGE ( 'NONE', *, *, #358, .F. ) ;
#1104 = VECTOR ( 'NONE', #846, 1000.000000000000000 ) ;
#1105 = AXIS2_PLACEMENT_3D ( 'NONE', #927, #431, #242 ) ;
#1106 = VERTEX_POINT ( 'NONE', #473 ) ;
#1107 = AXIS2_PLACEMENT_3D ( 'NONE', #978, #405, #122 ) ;
#1108 = AXIS2_PLACEMENT_3D ( 'NONE', #771, #977, #408 ) ;
#1109 = SHAPE_DEFINITION_REPRESENTATION ( #1174, #775 ) ;
#1110 = ORIENTED_EDGE ( 'NONE', *, *, #110, .F. ) ;
#1111 = CARTESIAN_POINT ( 'NONE',  ( -8.907681967970395576, -5.378502631947998935, -8.600050800102000181 ) ) ;
#1112 = PLANE ( 'NONE',  #575 ) ;
#1113 = VERTEX_POINT ( 'NONE', #751 ) ;
#1114 = CARTESIAN_POINT ( 'NONE',  ( -12.40002000004000138, -1.700004200008000010, 0.000000000000000000 ) ) ;
#1115 = ORIENTED_EDGE ( 'NONE', *, *, #404, .F. ) ;
#1116 = EDGE_CURVE ( 'NONE', #1033, #1106, #736, .T. ) ;
#1117 = PRODUCT_CONTEXT ( 'NONE', #799, 'mechanical' ) ;
#1118 = ORIENTED_EDGE ( 'NONE', *, *, #358, .T. ) ;
#1119 = DIRECTION ( 'NONE',  ( 0.000000000000000000, 0.000000000000000000, -1.000000000000000000 ) ) ;
#1120 = ORIENTED_EDGE ( 'NONE', *, *, #546, .T. ) ;
#1121 = CARTESIAN_POINT ( 'NONE',  ( 0.5999959999919972642, -21.47850263194799680, 0.000000000000000000 ) ) ;
#1122 = CARTESIAN_POINT ( 'NONE',  ( -8.000020000039999246, -2.100004200008000144, -8.600050800102000181 ) ) ;
#1123 = ORIENTED_EDGE ( 'NONE', *, *, #1058, .F. ) ;
#1124 = DIRECTION ( 'NONE',  ( 1.000000000000000000, 0.000000000000000000, 0.000000000000000000 ) ) ;
#1125 = ORIENTED_EDGE ( 'NONE', *, *, #1075, .T. ) ;
#1126 = DIRECTION ( 'NONE',  ( 1.000000000000000000, 0.000000000000000000, 0.000000000000000000 ) ) ;
#1127 = CARTESIAN_POINT ( 'NONE',  ( -3.087681967971604990, -5.378502631947998935, -8.600050800102000181 ) ) ;
#1128 = ORIENTED_EDGE ( 'NONE', *, *, #188, .T. ) ;
#1129 = VECTOR ( 'NONE', #750, 1000.000000000000000 ) ;
#1130 = AXIS2_PLACEMENT_3D ( 'NONE', #88, #179, #361 ) ;
#1131 = EDGE_CURVE ( 'NONE', #1081, #906, #557, .T. ) ;
#1132 = AXIS2_PLACEMENT_3D ( 'NONE', #530, #1101, #525 ) ;
#1133 = ORIENTED_EDGE ( 'NONE', *, *, #890, .T. ) ;
#1134 = EDGE_CURVE ( 'NONE', #325, #29, #460, .T. ) ;
#1135 = DIRECTION ( 'NONE',  ( -0.000000000000000000, -0.000000000000000000, 1.000000000000000000 ) ) ;
#1136 = EDGE_LOOP ( 'NONE', ( #731, #56, #123, #155 ) ) ;
#1137 = CYLINDRICAL_SURFACE ( 'NONE', #61, 1.000000000000000000 ) ;
#1138 = CARTESIAN_POINT ( 'NONE',  ( -3.064123744230200952, -3.533888851234472828, 9.244482919354950923 ) ) ;
#1139 = CARTESIAN_POINT ( 'NONE',  ( -10.00002000003999925, -2.100004200008000144, -1.600050800101999959 ) ) ;
#1140 = CARTESIAN_POINT ( 'NONE',  ( -12.00002000003999925, -10.00272941248000080, -8.600050800102000181 ) ) ;
#1141 = DIRECTION ( 'NONE',  ( -0.000000000000000000, -1.000000000000000000, -0.000000000000000000 ) ) ;
#1142 = EDGE_CURVE ( 'NONE', #1070, #77, #947, .T. ) ;
#1143 = DIRECTION ( 'NONE',  ( 0.000000000000000000, 0.000000000000000000, -1.000000000000000000 ) ) ;
#1144 = FACE_OUTER_BOUND ( 'NONE', #126, .T. ) ;
#1145 = CARTESIAN_POINT ( 'NONE',  ( -4.153068187257951571, -2.444944408207049946, -2.600050800101999737 ) ) ;
#1146 = VERTEX_POINT ( 'NONE', #85 ) ;
#1147 = CARTESIAN_POINT ( 'NONE',  ( -10.00002000003999925, -10.00272941248000080, -8.600050800102000181 ) ) ;
#1148 = DIRECTION ( 'NONE',  ( 0.000000000000000000, 0.000000000000000000, -1.000000000000000000 ) ) ;
#1149 = CARTESIAN_POINT ( 'NONE',  ( -10.00002000003999925, -2.100004200008000144, -8.600050800102000181 ) ) ;
#1150 = DIRECTION ( 'NONE',  ( -1.000000000000000000, 0.000000000000000000, 0.000000000000000000 ) ) ;
#1151 = AXIS2_PLACEMENT_3D ( 'NONE', #446, #831, #1031 ) ;
#1152 = CYLINDRICAL_SURFACE ( 'NONE', #538, 2.909999999999395737 ) ;
#1153 = AXIS2_PLACEMENT_3D ( 'NONE', #192, #956, #865 ) ;
#1154 = DIRECTION ( 'NONE',  ( -1.000000000000000000, 0.000000000000000000, -0.000000000000000000 ) ) ;
#1155 = CIRCLE ( 'NONE', #279, 2.799999999999999378 ) ;
#1156 = DIRECTION ( 'NONE',  ( 1.323940972467002338E-16, 1.000000000000000000, -0.000000000000000000 ) ) ;
#1157 = CARTESIAN_POINT ( 'NONE',  ( -2.000004000008000382, -10.00272941248000080, -8.600050800102000181 ) ) ;
#1158 = EDGE_CURVE ( 'NONE', #931, #704, #136, .T. ) ;
#1159 = DIRECTION ( 'NONE',  ( 1.000000000000000000, 0.000000000000000000, 0.000000000000000000 ) ) ;
#1160 = CARTESIAN_POINT ( 'NONE',  ( 0.5999959999919985965, -12.60272941247999867, -8.600050800102000181 ) ) ;
#1161 = DIRECTION ( 'NONE',  ( -0.000000000000000000, -0.000000000000000000, -1.000000000000000000 ) ) ;
#1162 = DIRECTION ( 'NONE',  ( -1.000000000000000000, 0.000000000000000000, 0.000000000000000000 ) ) ;
#1163 = CARTESIAN_POINT ( 'NONE',  ( -6.000012000024001146, -12.47850263194799858, -5.050025400050998314 ) ) ;
#1164 = DIRECTION ( 'NONE',  ( -0.000000000000000000, -0.000000000000000000, 1.000000000000000000 ) ) ;
#1165 = LINE ( 'NONE', #203, #1050 ) ;
#1166 = CARTESIAN_POINT ( 'NONE',  ( -6.000012000024001146, -12.47850263194799858, -7.850025400050997249 ) ) ;
#1167 = PRODUCT_RELATED_PRODUCT_CATEGORY ( 'part', '', ( #586 ) ) ;
#1168 = VECTOR ( 'NONE', #505, 1000.000000000000000 ) ;
#1169 = VECTOR ( 'NONE', #448, 1000.000000000000000 ) ;
#1170 = FACE_OUTER_BOUND ( 'NONE', #1025, .T. ) ;
#1171 = ORIENTED_EDGE ( 'NONE', *, *, #342, .F. ) ;
#1172 = EDGE_CURVE ( 'NONE', #704, #1030, #740, .T. ) ;
#1173 = VECTOR ( 'NONE', #1057, 1000.000000000000000 ) ;
#1174 = PRODUCT_DEFINITION_SHAPE ( 'NONE', 'NONE',  #613 ) ;
#1175 = DIRECTION ( 'NONE',  ( -0.000000000000000000, -0.000000000000000000, -1.000000000000000000 ) ) ;
#1176 = CARTESIAN_POINT ( 'NONE',  ( -3.468871065687258781, -3.938636172692395743, -2.600050800101999737 ) ) ;
#1177 = DIRECTION ( 'NONE',  ( 1.000000000000000000, 0.000000000000000000, 0.000000000000000000 ) ) ;
#1178 = EDGE_LOOP ( 'NONE', ( #803, #897, #638, #916 ) ) ;
#1179 = DIRECTION ( 'NONE',  ( -0.000000000000000000, -0.000000000000000000, 1.000000000000000000 ) ) ;
#1180 = EDGE_CURVE ( 'NONE', #1070, #1184, #929, .T. ) ;
#1181 = FACE_OUTER_BOUND ( 'NONE', #822, .T. ) ;
#1182 = EDGE_LOOP ( 'NONE', ( #904, #274, #1205, #427 ) ) ;
#1183 = PLANE ( 'NONE',  #159 ) ;
#1184 = VERTEX_POINT ( 'NONE', #35 ) ;
#1185 = LINE ( 'NONE', #308, #634 ) ;
#1186 = ADVANCED_FACE ( 'NONE', ( #485 ), #975, .F. ) ;
#1187 = ORIENTED_EDGE ( 'NONE', *, *, #1142, .T. ) ;
#1188 = ORIENTED_EDGE ( 'NONE', *, *, #1158, .T. ) ;
#1189 = DIRECTION ( 'NONE',  ( 1.000000000000000000, -8.673617379884035472E-16, 0.000000000000000000 ) ) ;
#1190 = DIRECTION ( 'NONE',  ( 2.367846212991294980E-16, 1.000000000000000000, -0.000000000000000000 ) ) ;
#1191 = AXIS2_PLACEMENT_3D ( 'NONE', #147, #267, #619 ) ;
#1192 = VECTOR ( 'NONE', #297, 1000.000000000000000 ) ;
#1193 = ADVANCED_FACE ( 'NONE', ( #1170 ), #395, .F. ) ;
#1194 = ORIENTED_EDGE ( 'NONE', *, *, #1158, .F. ) ;
#1195 = DIRECTION ( 'NONE',  ( -0.000000000000000000, -0.000000000000000000, -1.000000000000000000 ) ) ;
#1196 = FACE_BOUND ( 'NONE', #529, .T. ) ;
#1197 = ORIENTED_EDGE ( 'NONE', *, *, #628, .T. ) ;
#1198 = EDGE_LOOP ( 'NONE', ( #1074, #412, #154, #430 ) ) ;
#1199 = LINE ( 'NONE', #1212, #692 ) ;
#1200 = CARTESIAN_POINT ( 'NONE',  ( -4.153068187257887622, -2.444944408207111675, 9.244482919354950923 ) ) ;
#1201 = ORIENTED_EDGE ( 'NONE', *, *, #1172, .T. ) ;
#1202 = ORIENTED_EDGE ( 'NONE', *, *, #46, .T. ) ;
#1203 = CARTESIAN_POINT ( 'NONE',  ( 0.5999959999920007059, 0.4999957999920008334, 0.000000000000000000 ) ) ;
#1204 = EDGE_CURVE ( 'NONE', #1081, #113, #294, .T. ) ;
#1205 = ORIENTED_EDGE ( 'NONE', *, *, #1131, .F. ) ;
#1206 = LINE ( 'NONE', #1200, #591 ) ;
#1207 = ORIENTED_EDGE ( 'NONE', *, *, #127, .T. ) ;
#1208 = VECTOR ( 'NONE', #1059, 1000.000000000000114 ) ;
#1209 = AXIS2_PLACEMENT_3D ( 'NONE', #1035, #568, #270 ) ;
#1210 =( NAMED_UNIT ( * ) PLANE_ANGLE_UNIT ( ) SI_UNIT ( $, .RADIAN. ) );
#1211 = VERTEX_POINT ( 'NONE', #287 ) ;
#1212 = CARTESIAN_POINT ( 'NONE',  ( -4.557815508715677311, -2.849691729664529216, -1.600050800102000625 ) ) ;
#1213 = DIRECTION ( 'NONE',  ( 1.205869454805837871E-16, 1.000000000000000000, 0.000000000000000000 ) ) ;
#1214 = ORIENTED_EDGE ( 'NONE', *, *, #1239, .F. ) ;
#1215 = CARTESIAN_POINT ( 'NONE',  ( -12.00002000003999925, -10.00272941248000080, -8.600050800102000181 ) ) ;
#1216 = EDGE_CURVE ( 'NONE', #1227, #793, #943, .T. ) ;
#1217 = ORIENTED_EDGE ( 'NONE', *, *, #229, .F. ) ;
#1218 = ORIENTED_EDGE ( 'NONE', *, *, #567, .T. ) ;
#1219 = CARTESIAN_POINT ( 'NONE',  ( -4.000007999740290421E-06, -10.00272941248000080, -8.600050800102000181 ) ) ;
#1220 = ORIENTED_EDGE ( 'NONE', *, *, #1172, .F. ) ;
#1221 = CARTESIAN_POINT ( 'NONE',  ( 0.5999959999919972642, -21.47850263194799680, -10.10005080010200018 ) ) ;
#1222 = ORIENTED_EDGE ( 'NONE', *, *, #12, .F. ) ;
#1223 = EDGE_CURVE ( 'NONE', #906, #784, #959, .T. ) ;
#1224 = ADVANCED_FACE ( 'NONE', ( #868, #481 ), #1183, .T. ) ;
#1225 = ORIENTED_EDGE ( 'NONE', *, *, #1095, .T. ) ;
#1226 = LINE ( 'NONE', #359, #1104 ) ;
#1227 = VERTEX_POINT ( 'NONE', #887 ) ;
#1228 = FACE_OUTER_BOUND ( 'NONE', #683, .T. ) ;
#1229 = LINE ( 'NONE', #940, #944 ) ;
#1230 = AXIS2_PLACEMENT_3D ( 'NONE', #93, #1049, #566 ) ;
#1231 = VECTOR ( 'NONE', #1190, 1000.000000000000000 ) ;
#1232 = CIRCLE ( 'NONE', #375, 2.000000000000000000 ) ;
#1233 = CYLINDRICAL_SURFACE ( 'NONE', #311, 2.799999999999999378 ) ;
#1234 = DIRECTION ( 'NONE',  ( 0.000000000000000000, 0.000000000000000000, -1.000000000000000000 ) ) ;
#1235 = VERTEX_POINT ( 'NONE', #756 ) ;
#1236 = CARTESIAN_POINT ( 'NONE',  ( -3.516672084189488512, -2.444944408207486486, -2.600050800101999737 ) ) ;
#1237 = CARTESIAN_POINT ( 'NONE',  ( -6.000012000024001146, -22.47850263194799680, -7.850025400050997249 ) ) ;
#1238 = DIRECTION ( 'NONE',  ( -1.489433594025377261E-16, -1.000000000000000000, 0.000000000000000000 ) ) ;
#1239 = EDGE_CURVE ( 'NONE', #894, #1033, #351, .T. ) ;
#1240 = CARTESIAN_POINT ( 'NONE',  ( -12.60002000003999179, 1.499995799992000611, -10.10005080010200018 ) ) ;
#1241 = CARTESIAN_POINT ( 'NONE',  ( 1.599995999992000595, 0.4999957999919935059, -10.10005080010200018 ) ) ;
#1242 = ORIENTED_EDGE ( 'NONE', *, *, #49, .F. ) ;
#1243 = CARTESIAN_POINT ( 'NONE',  ( -3.468871065687523014, -3.938636172692562276, -1.600050800102000625 ) ) ;
#1244 = NEXT_ASSEMBLY_USAGE_OCCURRENCE ( 'NAUO1', ' ', ' ', #613, #369, $ ) ;
ENDSEC;
END-ISO-10303-21;
